<svg width="30" height="30" viewBox="0 0 30 30" fill="none" xmlns="http://www.w3.org/2000/svg">
<rect width="30" height="30" rx="8" fill="#F24E1E"/>
<g clip-path="url(#clip0_575_470)">
<g clip-path="url(#clip1_575_470)">
<path d="M20.8333 5.83319H9.16667C8.062 5.83451 7.00296 6.27393 6.22185 7.05504C5.44073 7.83616 5.00132 8.89519 5 9.99986L5 19.9999C5.00132 21.1045 5.44073 22.1636 6.22185 22.9447C7.00296 23.7258 8.062 24.1652 9.16667 24.1665H20.8333C21.938 24.1652 22.997 23.7258 23.7782 22.9447C24.5593 22.1636 24.9987 21.1045 25 19.9999V9.99986C24.9987 8.89519 24.5593 7.83616 23.7782 7.05504C22.997 6.27393 21.938 5.83451 20.8333 5.83319V5.83319ZM9.16667 7.49986H20.8333C21.3323 7.50084 21.8196 7.65112 22.2325 7.93136C22.6453 8.2116 22.9649 8.60898 23.15 9.07236L16.7683 15.4549C16.2987 15.9226 15.6628 16.1852 15 16.1852C14.3372 16.1852 13.7013 15.9226 13.2317 15.4549L6.85 9.07236C7.03512 8.60898 7.35468 8.2116 7.76754 7.93136C8.1804 7.65112 8.66768 7.50084 9.16667 7.49986V7.49986ZM20.8333 22.4999H9.16667C8.50363 22.4999 7.86774 22.2365 7.3989 21.7676C6.93006 21.2988 6.66667 20.6629 6.66667 19.9999V11.2499L12.0533 16.6332C12.8355 17.4134 13.8952 17.8516 15 17.8516C16.1048 17.8516 17.1645 17.4134 17.9467 16.6332L23.3333 11.2499V19.9999C23.3333 20.6629 23.0699 21.2988 22.6011 21.7676C22.1323 22.2365 21.4964 22.4999 20.8333 22.4999Z" fill="white"/>
</g>
</g>
<defs>
<clipPath id="clip0_575_470">
<rect x="5" y="5" width="20" height="20" rx="4" fill="white"/>
</clipPath>
<clipPath id="clip1_575_470">
<rect width="20" height="20" fill="white" transform="translate(5 5)"/>
</clipPath>
</defs>
</svg>
