<svg width="30" height="31" viewBox="0 0 30 31" fill="none" xmlns="http://www.w3.org/2000/svg">
<g clip-path="url(#clip0_213_755)">
<path d="M23.125 1.44531H6.875C5.05225 1.4473 3.30472 2.17226 2.01583 3.46115C0.726951 4.75003 0.00198521 6.49756 0 8.32031L0 22.0703C0.00198521 23.8931 0.726951 25.6406 2.01583 26.9295C3.30472 28.2184 5.05225 28.9433 6.875 28.9453H23.125C24.9478 28.9433 26.6953 28.2184 27.9842 26.9295C29.273 25.6406 29.998 23.8931 30 22.0703V8.32031C29.998 6.49756 29.273 4.75003 27.9842 3.46115C26.6953 2.17226 24.9478 1.4473 23.125 1.44531ZM23.125 5.19531C23.8831 5.19784 24.6139 5.4785 25.1787 5.98406L17.0537 14.1091C16.5019 14.6361 15.7681 14.9303 15.005 14.9303C14.2419 14.9303 13.5081 14.6361 12.9562 14.1091L4.83125 5.98406C5.39356 5.48078 6.12037 5.20028 6.875 5.19531H23.125ZM23.125 25.1953H6.875C6.0462 25.1953 5.25134 24.8661 4.66529 24.28C4.07924 23.694 3.75 22.8991 3.75 22.0703V10.2166L10.2987 16.7653C10.9159 17.3828 11.6488 17.8726 12.4553 18.2068C13.2618 18.541 14.1263 18.713 14.9994 18.713C15.8724 18.713 16.7369 18.541 17.5434 18.2068C18.35 17.8726 19.0828 17.3828 19.7 16.7653L26.25 10.2166V22.0703C26.25 22.8991 25.9208 23.694 25.3347 24.28C24.7487 24.8661 23.9538 25.1953 23.125 25.1953Z" fill="#F24E1E"/>
</g>
<defs>
<clipPath id="clip0_213_755">
<rect width="30" height="30" fill="white" transform="translate(0 0.195312)"/>
</clipPath>
</defs>
</svg>
