<svg width="40" height="41" viewBox="0 0 40 41" fill="none" xmlns="http://www.w3.org/2000/svg">
<g clip-path="url(#clip0_213_731)">
<path d="M28.7503 3.28003C27.0408 3.29657 25.359 3.71326 23.8395 4.49673C22.3201 5.2802 21.0052 6.40865 20.0003 7.7917C18.9954 6.40865 17.6806 5.2802 16.1611 4.49673C14.6417 3.71326 12.9598 3.29657 11.2503 3.28003C8.15327 3.40371 5.23119 4.74866 3.12301 7.0208C1.01484 9.29294 -0.10789 12.3074 0.000319351 15.405C0.000319351 22.9917 7.79032 31.1134 14.3337 36.5917C15.9225 37.9277 17.9319 38.6602 20.0078 38.6602C22.0837 38.6602 24.0931 37.9277 25.682 36.5917C32.2187 31.1134 40.0153 22.9917 40.0153 15.405C40.1235 12.3049 38.9987 9.28825 36.8873 7.01568C34.7759 4.74311 31.85 3.39984 28.7503 3.28003ZM22.462 32.76C21.7727 33.3404 20.9006 33.6586 19.9995 33.6586C19.0984 33.6586 18.2263 33.3404 17.537 32.76C9.57032 26.08 5.00032 19.755 5.00032 15.405C4.89406 13.6337 5.49079 11.892 6.66096 10.558C7.83112 9.22401 9.48026 8.40544 11.2503 8.28003C13.0204 8.40544 14.6695 9.22401 15.8397 10.558C17.0099 11.892 17.6066 13.6337 17.5003 15.405C17.5003 16.0681 17.7637 16.704 18.2326 17.1728C18.7014 17.6416 19.3373 17.905 20.0003 17.905C20.6634 17.905 21.2992 17.6416 21.7681 17.1728C22.2369 16.704 22.5003 16.0681 22.5003 15.405C22.3941 13.6337 22.9908 11.892 24.161 10.558C25.3311 9.22401 26.9803 8.40544 28.7503 8.28003C30.5204 8.40544 32.1695 9.22401 33.3397 10.558C34.5099 11.892 35.1066 13.6337 35.0003 15.405C35.0003 19.755 30.4303 26.08 22.462 32.76Z" fill="#F24E1E"/>
</g>
<defs>
<clipPath id="clip0_213_731">
<rect width="40" height="40" fill="white" transform="translate(0 0.195557)"/>
</clipPath>
</defs>
</svg>
