<svg width="31" height="30" viewBox="0 0 31 30" fill="none" xmlns="http://www.w3.org/2000/svg">
<rect width="30.6061" height="30" rx="8" fill="black"/>
<path fill-rule="evenodd" clip-rule="evenodd" d="M15.303 5C9.61061 5 5 9.58819 5 15.2529C5 19.7899 7.94924 23.6219 12.0447 24.9804C12.5598 25.0701 12.753 24.7625 12.753 24.4934C12.753 24.2499 12.7402 23.4425 12.7402 22.5838C10.1515 23.058 9.48182 21.9558 9.27576 21.3791C9.15985 21.0843 8.65758 20.1743 8.2197 19.9308C7.85909 19.7386 7.34394 19.2644 8.20682 19.2516C9.01818 19.2388 9.59773 19.9949 9.79091 20.3025C10.7182 21.8533 12.1992 21.4175 12.7917 21.1484C12.8818 20.4819 13.1523 20.0334 13.4485 19.777C11.1561 19.5207 8.76061 18.6364 8.76061 14.7147C8.76061 13.5997 9.15985 12.6769 9.81667 11.9592C9.71364 11.7029 9.35303 10.6519 9.9197 9.24215C9.9197 9.24215 10.7826 8.97301 12.753 10.2931C13.5773 10.0624 14.453 9.94704 15.3288 9.94704C16.2045 9.94704 17.0803 10.0624 17.9045 10.2931C19.875 8.9602 20.7379 9.24215 20.7379 9.24215C21.3045 10.6519 20.9439 11.7029 20.8409 11.9592C21.4977 12.6769 21.897 13.5868 21.897 14.7147C21.897 18.6492 19.4886 19.5207 17.1962 19.777C17.5697 20.0975 17.8917 20.7126 17.8917 21.6738C17.8917 23.0452 17.8788 24.1474 17.8788 24.4934C17.8788 24.7625 18.072 25.0829 18.5871 24.9804C22.6568 23.6219 25.6061 19.777 25.6061 15.2529C25.6061 9.58819 20.9955 5 15.303 5Z" fill="white"/>
</svg>
