<svg width="40" height="41" viewBox="0 0 40 41" fill="none" xmlns="http://www.w3.org/2000/svg">
<g clip-path="url(#clip0_213_720)">
<path d="M25.568 10.1955H24.9863C26.5672 9.66977 28.0154 8.80777 29.2313 7.66884C30.6238 6.11636 31.4737 4.15324 31.653 2.0755C31.6857 1.82261 31.66 1.56558 31.5777 1.3242C31.4955 1.08283 31.3589 0.863542 31.1786 0.683227C30.9983 0.502913 30.779 0.366379 30.5376 0.284135C30.2963 0.201891 30.0392 0.176131 29.7863 0.208838C27.7086 0.388114 25.7455 1.23806 24.193 2.6305C23.0318 3.9366 22.2705 5.54895 21.9997 7.27551C21.5584 5.15753 20.7392 3.13636 19.5813 1.30884C19.2136 0.756303 18.6414 0.372494 17.9906 0.241844C17.3399 0.111193 16.6639 0.244404 16.1113 0.612171C15.5588 0.979938 15.175 1.55214 15.0443 2.20289C14.9137 2.85364 15.0469 3.52964 15.4147 4.08217C16.5577 5.93206 17.2433 8.02775 17.4147 10.1955H14.4313C10.5305 10.2769 6.82095 11.9015 4.11578 14.7132C1.41061 17.5249 -0.0695493 21.2944 -0.000325243 25.1955C-0.323659 34.6205 9.88801 43.3238 18.4563 39.0622C18.9252 38.7089 19.4975 38.5202 20.0845 38.5253C20.6715 38.5304 21.2404 38.7291 21.703 39.0905C30.2297 43.3322 40.3013 34.4922 39.9997 25.1955C40.0689 21.2944 38.5887 17.5249 35.8836 14.7132C33.1784 11.9015 29.4689 10.2769 25.568 10.1955ZM25.568 35.1955C25.021 35.1619 24.4934 34.9804 24.0413 34.6705C22.8188 33.9393 21.4242 33.5453 19.9997 33.5288C18.6448 33.5579 17.3201 33.9349 16.153 34.6238C15.6406 34.9649 15.046 35.1624 14.4313 35.1955C1.96968 34.7855 1.97468 15.6022 14.4313 15.1955H25.568C38.033 15.6072 38.023 34.7888 25.568 35.1955Z" fill="#F24E1E"/>
</g>
<defs>
<clipPath id="clip0_213_720">
<rect width="40" height="40" fill="white" transform="translate(0 0.195557)"/>
</clipPath>
</defs>
</svg>
