<svg width="31" height="30" viewBox="0 0 31 30" fill="none" xmlns="http://www.w3.org/2000/svg">
<rect x="0.988281" width="30.0112" height="30" rx="8" fill="url(#paint0_linear_505_774)"/>
<path d="M12.6595 15C12.6595 13.1591 14.1523 11.6664 15.9943 11.6664C17.8363 11.6664 19.3299 13.1591 19.3299 15C19.3299 16.8409 17.8363 18.3336 15.9943 18.3336C14.1523 18.3336 12.6595 16.8409 12.6595 15ZM10.8563 15C10.8563 17.836 13.1566 20.1349 15.9943 20.1349C18.832 20.1349 21.1322 17.836 21.1322 15C21.1322 12.164 18.832 9.86512 15.9943 9.86512C13.1566 9.86512 10.8563 12.164 10.8563 15ZM20.1349 9.66152C20.1348 9.89886 20.2052 10.1309 20.337 10.3283C20.4689 10.5257 20.6563 10.6796 20.8757 10.7705C21.0951 10.8614 21.3365 10.8852 21.5694 10.839C21.8024 10.7928 22.0164 10.6786 22.1843 10.5109C22.3523 10.3431 22.4668 10.1293 22.5132 9.89658C22.5596 9.66382 22.5359 9.42253 22.4451 9.20322C22.3544 8.98392 22.2005 8.79644 22.0031 8.6645C21.8057 8.53257 21.5736 8.4621 21.3361 8.462H21.3356C21.0173 8.46215 20.7121 8.58856 20.4869 8.81347C20.2618 9.03837 20.1352 9.34339 20.1349 9.66152ZM11.9519 23.1398C10.9763 23.0954 10.4461 22.933 10.0937 22.7958C9.62654 22.614 9.29322 22.3975 8.94277 22.0478C8.59232 21.698 8.37539 21.3652 8.19432 20.8983C8.05696 20.5463 7.89446 20.0162 7.85012 19.0413C7.80161 17.9872 7.79192 17.6706 7.79192 15.0001C7.79192 12.3296 7.80241 12.0138 7.85012 10.9589C7.89454 9.98392 8.05824 9.45488 8.19432 9.10184C8.37619 8.63496 8.5928 8.30184 8.94277 7.9516C9.29274 7.60136 9.62574 7.38456 10.0937 7.2036C10.4459 7.06632 10.9763 6.90392 11.9519 6.8596C13.0066 6.81112 13.3234 6.80144 15.9943 6.80144C18.6652 6.80144 18.9823 6.81192 20.0379 6.8596C21.0135 6.904 21.5428 7.0676 21.8961 7.2036C22.3632 7.38456 22.6965 7.60184 23.047 7.9516C23.3974 8.30136 23.6136 8.63496 23.7954 9.10184C23.9328 9.45384 24.0953 9.98392 24.1396 10.9589C24.1882 12.0138 24.1978 12.3296 24.1978 15.0001C24.1978 17.6706 24.1882 17.9863 24.1396 19.0413C24.0952 20.0162 23.9319 20.5462 23.7954 20.8983C23.6136 21.3652 23.397 21.6983 23.047 22.0478C22.697 22.3972 22.3632 22.614 21.8961 22.7958C21.5438 22.933 21.0135 23.0954 20.0379 23.1398C18.9832 23.1882 18.6664 23.1979 15.9943 23.1979C13.3222 23.1979 13.0062 23.1882 11.9519 23.1398ZM11.869 5.06056C10.8038 5.10904 10.0759 5.27784 9.44027 5.52504C8.78196 5.78032 8.22466 6.1228 7.66777 6.67848C7.11087 7.23416 6.76907 7.792 6.51364 8.44992C6.26629 9.0856 6.09739 9.81264 6.04888 10.8772C5.99957 11.9434 5.98828 12.2843 5.98828 15C5.98828 17.7157 5.99957 18.0566 6.04888 19.1228C6.09739 20.1874 6.26629 20.9144 6.51364 21.5501C6.76907 22.2076 7.11095 22.7661 7.66777 23.3215C8.22458 23.877 8.78196 24.219 9.44027 24.475C10.0771 24.7222 10.8038 24.891 11.869 24.9394C12.9364 24.9879 13.277 25 15.9943 25C18.7116 25 19.0527 24.9887 20.1196 24.9394C21.1848 24.891 21.9122 24.7222 22.5483 24.475C23.2062 24.219 23.7639 23.8772 24.3208 23.3215C24.8777 22.7658 25.2188 22.2076 25.4749 21.5501C25.7223 20.9144 25.892 20.1874 25.9397 19.1228C25.9882 18.0558 25.9995 17.7157 25.9995 15C25.9995 12.2843 25.9882 11.9434 25.9397 10.8772C25.8912 9.81256 25.7223 9.0852 25.4749 8.44992C25.2188 7.7924 24.8768 7.23504 24.3208 6.67848C23.7648 6.12192 23.2062 5.78032 22.5491 5.52504C21.9122 5.27784 21.1848 5.10824 20.1204 5.06056C19.0535 5.01208 18.7124 5 15.9951 5C13.2778 5 12.9364 5.01128 11.869 5.06056Z" fill="#D9D9D9"/>
<defs>
<linearGradient id="paint0_linear_505_774" x1="30.4227" y1="30" x2="0.422669" y2="-0.0111987" gradientUnits="userSpaceOnUse">
<stop stop-color="#FBE18A"/>
<stop offset="0.21" stop-color="#FCBB45"/>
<stop offset="0.38" stop-color="#F75274"/>
<stop offset="0.52" stop-color="#D53692"/>
<stop offset="0.74" stop-color="#8F39CE"/>
<stop offset="1" stop-color="#5B4FE9"/>
</linearGradient>
</defs>
</svg>
