<svg width="40" height="41" viewBox="0 0 40 41" fill="none" xmlns="http://www.w3.org/2000/svg">
<g clip-path="url(#clip0_213_715)">
<path d="M14.167 37.5901C13.6386 37.5902 13.1238 37.4229 12.6964 37.1123C12.2691 36.8016 11.9511 36.3635 11.7882 35.8609C11.6253 35.3583 11.6258 34.817 11.7897 34.3147C11.9536 33.8124 12.2724 33.3749 12.7003 33.0651C16.887 30.0317 17.4753 24.4301 17.497 19.3501C17.5001 18.6885 17.7653 18.0551 18.2345 17.5887C18.7037 17.1223 19.3387 16.8609 20.0003 16.8617H20.0103C20.3388 16.8631 20.6637 16.9291 20.9667 17.056C21.2696 17.183 21.5445 17.3684 21.7758 17.6016C22.007 17.8349 22.19 18.1114 22.3143 18.4154C22.4387 18.7194 22.5019 19.045 22.5003 19.3734C22.4837 23.2067 22.4453 32.1834 15.6337 37.1134C15.2079 37.4242 14.6941 37.5912 14.167 37.5901ZM24.2137 39.2467C25.5686 37.5586 26.6821 35.6901 27.522 33.6951C27.7815 33.0846 27.7878 32.3961 27.5396 31.781C27.2915 31.1659 26.8091 30.6746 26.1987 30.4151C25.5882 30.1556 24.8997 30.1493 24.2846 30.3974C23.6695 30.6456 23.1781 31.128 22.9187 31.7384C22.2645 33.3052 21.3944 34.7727 20.3337 36.0984C19.9162 36.6136 19.7204 37.2735 19.7895 37.933C19.8586 38.5925 20.1868 39.1976 20.702 39.6151C21.2172 40.0326 21.8771 40.2283 22.5366 40.1592C23.1961 40.0902 23.8012 39.7619 24.2187 39.2467H24.2137ZM29.8937 22.8501C30.0003 21.1484 30.0003 19.6334 30.0003 18.5284C30.0006 16.9284 29.617 15.3518 28.8817 13.9308C28.1464 12.5098 27.0809 11.286 25.7746 10.3621C24.4683 9.43822 22.9594 8.84128 21.3747 8.62139C19.7899 8.40151 18.1755 8.56509 16.667 9.09841C16.3524 9.20387 16.062 9.37088 15.8127 9.58971C15.5633 9.80853 15.36 10.0748 15.2146 10.373C15.0692 10.6712 14.9846 10.9953 14.9658 11.3265C14.9469 11.6578 14.9941 11.9894 15.1047 12.3022C15.2153 12.615 15.3871 12.9026 15.6099 13.1483C15.8328 13.394 16.1024 13.593 16.4029 13.7335C16.7035 13.874 17.0289 13.9532 17.3604 13.9667C17.6919 13.9801 18.0227 13.9275 18.3337 13.8117C19.088 13.545 19.8954 13.4633 20.6879 13.5733C21.4804 13.6833 22.235 13.9819 22.8881 14.4441C23.5413 14.9062 24.0741 15.5183 24.4416 16.229C24.8091 16.9397 25.0007 17.7283 25.0003 18.5284C25.0003 19.6267 25.0003 20.9934 24.9037 22.5401C24.8827 22.8683 24.9266 23.1974 25.033 23.5085C25.1394 23.8197 25.3061 24.1068 25.5236 24.3534C25.7411 24.6001 26.0052 24.8014 26.3006 24.9458C26.5961 25.0902 26.9171 25.1749 27.2453 25.1951C27.2964 25.1951 27.3481 25.1951 27.4003 25.1951C28.0365 25.195 28.6487 24.9525 29.1123 24.5168C29.5759 24.0811 29.8559 23.485 29.8953 22.8501H29.8937ZM7.81866 31.7884C8.90438 31.6614 9.95198 31.3107 10.8953 30.7584C14.9637 28.3167 14.9837 23.1467 15.0003 19.3717C15.0016 19.0433 14.9382 18.7178 14.8137 18.4139C14.6892 18.11 14.506 17.8336 14.2746 17.6005C14.0432 17.3674 13.7681 17.1821 13.4651 17.0554C13.1621 16.9286 12.8371 16.8628 12.5087 16.8617H12.5003C11.839 16.8617 11.2046 17.1238 10.7361 17.5904C10.2675 18.0571 10.003 18.6904 10.0003 19.3517C9.98532 23.3267 9.71366 25.6384 8.33366 26.4701C7.98023 26.6648 7.59156 26.7872 7.19033 26.8301C6.56021 26.9103 5.98424 27.2273 5.57941 27.7167C5.17457 28.2062 4.97124 28.8314 5.0107 29.4654C5.05017 30.0994 5.32947 30.6946 5.79188 31.13C6.25429 31.5655 6.86513 31.8087 7.50033 31.8101C7.60681 31.8101 7.71317 31.8029 7.81866 31.7884ZM34.532 38.7417C37.2499 32.3594 38.5471 25.4621 38.3337 18.5284C38.336 16.2148 37.8982 13.9218 37.0437 11.7717C36.7988 11.1556 36.3191 10.6619 35.7103 10.3993C35.1014 10.1368 34.4132 10.1269 33.797 10.3717C33.1808 10.6166 32.6871 11.0963 32.4246 11.7051C32.162 12.314 32.1521 13.0022 32.397 13.6184C33.0184 15.1807 33.3363 16.8471 33.3337 18.5284C33.536 24.7386 32.3956 30.9193 29.9903 36.6484C29.7127 37.2507 29.6858 37.9385 29.9153 38.5607C30.1449 39.1828 30.6122 39.6883 31.2145 39.9659C31.8168 40.2435 32.5046 40.2705 33.1268 40.0409C33.7489 39.8113 34.2544 39.344 34.532 38.7417ZM6.66699 21.0284V18.5284C6.66725 16.2225 7.26553 13.9561 8.4034 11.9504C9.54128 9.94483 11.1798 8.2686 13.1591 7.08545C15.1383 5.9023 17.3906 5.25268 19.6959 5.20004C22.0012 5.14739 24.2808 5.69352 26.312 6.78508C26.8942 7.08799 27.5721 7.14984 28.1995 6.95727C28.8269 6.7647 29.3534 6.33317 29.6653 5.7558C29.9773 5.17843 30.0498 4.50154 29.867 3.87123C29.6843 3.24091 29.2611 2.70773 28.6887 2.38675C25.8959 0.883713 22.7609 0.130896 19.5901 0.201856C16.4194 0.272816 13.3212 1.16513 10.5985 2.7916C7.87571 4.41806 5.62146 6.72306 4.05598 9.48134C2.49051 12.2396 1.66737 15.3568 1.66699 18.5284V21.0284C1.66699 21.6915 1.93038 22.3273 2.39923 22.7962C2.86807 23.265 3.50395 23.5284 4.16699 23.5284C4.83003 23.5284 5.46592 23.265 5.93476 22.7962C6.4036 22.3273 6.66699 21.6915 6.66699 21.0284Z" fill="#F24E1E"/>
</g>
<defs>
<clipPath id="clip0_213_715">
<rect width="40" height="40" fill="white" transform="translate(0 0.195557)"/>
</clipPath>
</defs>
</svg>
