<svg width="30" height="30" viewBox="0 0 30 30" fill="none" xmlns="http://www.w3.org/2000/svg">
<rect width="30" height="30" rx="8" fill="#2D90E3"/>
<g clip-path="url(#clip0_505_769)">
<path d="M5 6.43266C5 5.64187 5.66203 5 6.47812 5H23.5219C24.3383 5 25 5.64187 25 6.43266V23.5676C25 24.3586 24.3383 25 23.5219 25H6.47812C5.66211 25 5 24.3587 5 23.5678V6.43242V6.43266Z" fill="white"/>
<path d="M11.0774 21.7373V12.7333H8.08461V21.7373H11.0777H11.0774ZM9.58164 11.5041C10.6251 11.5041 11.2747 10.8127 11.2747 9.94867C11.2552 9.06492 10.6251 8.39281 9.60148 8.39281C8.57719 8.39281 7.9082 9.06492 7.9082 9.9486C7.9082 10.8127 8.55758 11.5041 9.56203 11.5041H9.58141L9.58164 11.5041ZM12.734 21.7373H15.7266V16.7096C15.7266 16.4409 15.7461 16.1714 15.8252 15.9795C16.0414 15.4416 16.5338 14.8848 17.3608 14.8848C18.4434 14.8848 18.8768 15.7104 18.8768 16.9209V21.7373H21.8693V16.5747C21.8693 13.8091 20.393 12.5222 18.4241 12.5222C16.8098 12.5222 16.1008 13.4245 15.7069 14.039H15.7268V12.7336H12.7341C12.7732 13.5783 12.7339 21.7377 12.7339 21.7377L12.734 21.7373Z" fill="#2D90E3"/>
</g>
<defs>
<clipPath id="clip0_505_769">
<rect x="5" y="5" width="20" height="20" rx="4" fill="white"/>
</clipPath>
</defs>
</svg>
