<svg width="194" height="31" viewBox="0 0 194 31" fill="none" xmlns="http://www.w3.org/2000/svg">
<g clip-path="url(#clip0_505_760)">
<path d="M30 30.5C30 22.5435 26.8393 14.9129 21.2132 9.2868C15.5871 3.66071 7.95649 0.5 0 0.5L0 30.5L30 30.5Z" fill="#F24E1E"/>
<path d="M22.5 30.5C22.5 24.5326 20.1295 18.8097 15.9099 14.5901C11.6903 10.3705 5.96737 8 0 8L0 30.5L22.5 30.5Z" fill="#FFC3B1"/>
<path d="M15 30.5C15 26.5218 13.4196 22.7064 10.6066 19.8934C7.79356 17.0804 3.97825 15.5 0 15.5L0 30.5H15Z" fill="#F24E1E"/>
</g>
<path d="M40.92 22.5V8.74H43.66V22.5H40.92ZM36.44 10.86V8.44H48.14V10.86H36.44ZM56.2381 22.5V16.96C56.2381 16.3867 56.0581 15.92 55.6981 15.56C55.3381 15.2 54.8715 15.02 54.2981 15.02C53.9248 15.02 53.5915 15.1 53.2981 15.26C53.0048 15.42 52.7715 15.6467 52.5981 15.94C52.4381 16.2333 52.3581 16.5733 52.3581 16.96L51.3381 16.44C51.3381 15.68 51.4981 15.02 51.8181 14.46C52.1381 13.8867 52.5781 13.44 53.1381 13.12C53.7115 12.8 54.3648 12.64 55.0981 12.64C55.8315 12.64 56.4781 12.8 57.0381 13.12C57.6115 13.44 58.0581 13.88 58.3781 14.44C58.6981 15 58.8581 15.6467 58.8581 16.38V22.5H56.2381ZM49.7381 22.5V8.04H52.3581V22.5H49.7381ZM65.5086 22.7C64.5353 22.7 63.6553 22.48 62.8686 22.04C62.0953 21.5867 61.4753 20.98 61.0086 20.22C60.5553 19.4467 60.3286 18.5867 60.3286 17.64C60.3286 16.6933 60.5553 15.8467 61.0086 15.1C61.4619 14.34 62.0819 13.74 62.8686 13.3C63.6553 12.8467 64.5286 12.62 65.4886 12.62C66.4753 12.62 67.3553 12.8467 68.1286 13.3C68.9153 13.74 69.5353 14.34 69.9886 15.1C70.4419 15.8467 70.6686 16.6933 70.6686 17.64C70.6686 18.5867 70.4419 19.4467 69.9886 20.22C69.5353 20.98 68.9153 21.5867 68.1286 22.04C67.3553 22.48 66.4819 22.7 65.5086 22.7ZM65.4886 20.26C65.9819 20.26 66.4153 20.1533 66.7886 19.94C67.1753 19.7133 67.4686 19.4067 67.6686 19.02C67.8819 18.62 67.9886 18.1667 67.9886 17.66C67.9886 17.1533 67.8819 16.7067 67.6686 16.32C67.4553 15.9333 67.1619 15.6333 66.7886 15.42C66.4153 15.1933 65.9819 15.08 65.4886 15.08C65.0086 15.08 64.5819 15.1933 64.2086 15.42C63.8353 15.6333 63.5419 15.9333 63.3286 16.32C63.1153 16.7067 63.0086 17.1533 63.0086 17.66C63.0086 18.1667 63.1153 18.62 63.3286 19.02C63.5419 19.4067 63.8353 19.7133 64.2086 19.94C64.5819 20.1533 65.0086 20.26 65.4886 20.26ZM72.3553 22.5V12.84H74.9753V22.5H72.3553ZM78.6553 22.5V16.8C78.6553 16.24 78.4753 15.8067 78.1153 15.5C77.7686 15.18 77.3353 15.02 76.8153 15.02C76.4686 15.02 76.1553 15.0933 75.8753 15.24C75.5953 15.3733 75.3753 15.5733 75.2153 15.84C75.0553 16.1067 74.9753 16.4267 74.9753 16.8L73.9553 16.3C73.9553 15.5533 74.1153 14.9067 74.4353 14.36C74.7686 13.8133 75.2153 13.3933 75.7753 13.1C76.3353 12.7933 76.9686 12.64 77.6753 12.64C78.342 12.64 78.9486 12.7933 79.4953 13.1C80.042 13.3933 80.4753 13.8133 80.7953 14.36C81.1153 14.8933 81.2753 15.54 81.2753 16.3V22.5H78.6553ZM84.9553 22.5V16.8C84.9553 16.24 84.7753 15.8067 84.4153 15.5C84.0686 15.18 83.6353 15.02 83.1153 15.02C82.782 15.02 82.4686 15.0933 82.1753 15.24C81.8953 15.3733 81.6753 15.5733 81.5153 15.84C81.3553 16.1067 81.2753 16.4267 81.2753 16.8L79.7753 16.44C79.8286 15.6667 80.0353 15 80.3953 14.44C80.7553 13.8667 81.2286 13.4267 81.8153 13.12C82.402 12.8 83.0553 12.64 83.7753 12.64C84.4953 12.64 85.142 12.7933 85.7153 13.1C86.2886 13.3933 86.742 13.82 87.0753 14.38C87.4086 14.94 87.5753 15.6067 87.5753 16.38V22.5H84.9553ZM93.7391 22.7C92.8591 22.7 92.0657 22.48 91.3591 22.04C90.6524 21.6 90.0991 21 89.6991 20.24C89.2991 19.48 89.0991 18.6267 89.0991 17.68C89.0991 16.72 89.2991 15.86 89.6991 15.1C90.0991 14.34 90.6524 13.74 91.3591 13.3C92.0657 12.86 92.8591 12.64 93.7391 12.64C94.4324 12.64 95.0524 12.78 95.5991 13.06C96.1457 13.34 96.5791 13.7333 96.8991 14.24C97.2324 14.7333 97.4124 15.2933 97.4391 15.92V19.4C97.4124 20.04 97.2324 20.6067 96.8991 21.1C96.5791 21.5933 96.1457 21.9867 95.5991 22.28C95.0524 22.56 94.4324 22.7 93.7391 22.7ZM94.2191 20.28C94.9524 20.28 95.5457 20.04 95.9991 19.56C96.4524 19.0667 96.6791 18.4333 96.6791 17.66C96.6791 17.1533 96.5724 16.7067 96.3591 16.32C96.1591 15.92 95.8724 15.6133 95.4991 15.4C95.1391 15.1733 94.7124 15.06 94.2191 15.06C93.7391 15.06 93.3124 15.1733 92.9391 15.4C92.5791 15.6133 92.2924 15.92 92.0791 16.32C91.8791 16.7067 91.7791 17.1533 91.7791 17.66C91.7791 18.18 91.8791 18.64 92.0791 19.04C92.2924 19.4267 92.5791 19.7333 92.9391 19.96C93.3124 20.1733 93.7391 20.28 94.2191 20.28ZM96.5391 22.5V19.9L96.9591 17.54L96.5391 15.22V12.84H99.1391V22.5H96.5391ZM104.777 22.72C104.23 22.72 103.69 22.6467 103.157 22.5C102.637 22.3533 102.157 22.1533 101.717 21.9C101.277 21.6333 100.897 21.3133 100.577 20.94L102.137 19.36C102.47 19.7333 102.857 20.0133 103.297 20.2C103.737 20.3867 104.224 20.48 104.757 20.48C105.184 20.48 105.504 20.42 105.717 20.3C105.944 20.18 106.057 20 106.057 19.76C106.057 19.4933 105.937 19.2867 105.697 19.14C105.47 18.9933 105.17 18.8733 104.797 18.78C104.424 18.6733 104.03 18.56 103.617 18.44C103.217 18.3067 102.83 18.14 102.457 17.94C102.084 17.7267 101.777 17.44 101.537 17.08C101.31 16.7067 101.197 16.2267 101.197 15.64C101.197 15.0267 101.344 14.4933 101.637 14.04C101.944 13.5867 102.377 13.2333 102.937 12.98C103.497 12.7267 104.157 12.6 104.917 12.6C105.717 12.6 106.437 12.74 107.077 13.02C107.73 13.3 108.27 13.72 108.697 14.28L107.117 15.86C106.824 15.5 106.49 15.24 106.117 15.08C105.757 14.92 105.364 14.84 104.937 14.84C104.55 14.84 104.25 14.9 104.037 15.02C103.837 15.14 103.737 15.3067 103.737 15.52C103.737 15.76 103.85 15.9467 104.077 16.08C104.317 16.2133 104.624 16.3333 104.997 16.44C105.37 16.5333 105.757 16.6467 106.157 16.78C106.57 16.9 106.957 17.0733 107.317 17.3C107.69 17.5267 107.99 17.8267 108.217 18.2C108.457 18.5733 108.577 19.0533 108.577 19.64C108.577 20.5867 108.237 21.34 107.557 21.9C106.877 22.4467 105.95 22.72 104.777 22.72ZM115.79 22.5V21.2H120.15C121.057 21.2 121.77 20.9467 122.29 20.44C122.81 19.9333 123.07 19.3 123.07 18.54C123.07 18.0467 122.957 17.6 122.73 17.2C122.503 16.8 122.177 16.4867 121.75 16.26C121.337 16.02 120.843 15.9 120.27 15.9H115.79V14.62H120.05C120.797 14.62 121.383 14.42 121.81 14.02C122.25 13.62 122.47 13.0533 122.47 12.32C122.47 11.5867 122.237 11.02 121.77 10.62C121.303 10.22 120.677 10.02 119.89 10.02H115.79V8.74H119.93C120.783 8.74 121.51 8.89333 122.11 9.2C122.71 9.50667 123.163 9.92 123.47 10.44C123.777 10.96 123.93 11.5467 123.93 12.2C123.93 12.9733 123.73 13.64 123.33 14.2C122.93 14.7467 122.343 15.1667 121.57 15.46L121.71 14.98C122.603 15.26 123.297 15.72 123.79 16.36C124.297 17 124.55 17.76 124.55 18.64C124.55 19.3733 124.37 20.0333 124.01 20.62C123.663 21.1933 123.15 21.6533 122.47 22C121.803 22.3333 120.997 22.5 120.05 22.5H115.79ZM114.85 22.5V8.74H116.31V22.5H114.85ZM131.09 22.7C130.197 22.7 129.397 22.4867 128.69 22.06C127.983 21.62 127.423 21.0333 127.01 20.3C126.61 19.5667 126.41 18.74 126.41 17.82C126.41 16.8867 126.61 16.0533 127.01 15.32C127.423 14.5733 127.983 13.9867 128.69 13.56C129.397 13.12 130.19 12.9 131.07 12.9C131.79 12.9 132.43 13.0467 132.99 13.34C133.563 13.62 134.023 14.02 134.37 14.54C134.73 15.0467 134.95 15.64 135.03 16.32V19.26C134.95 19.94 134.73 20.54 134.37 21.06C134.023 21.58 133.563 21.9867 132.99 22.28C132.43 22.56 131.797 22.7 131.09 22.7ZM131.31 21.36C132.283 21.36 133.063 21.0333 133.65 20.38C134.25 19.7267 134.55 18.8667 134.55 17.8C134.55 17.0933 134.41 16.4733 134.13 15.94C133.863 15.3933 133.483 14.9733 132.99 14.68C132.51 14.3733 131.943 14.22 131.29 14.22C130.623 14.22 130.03 14.3733 129.51 14.68C129.003 14.9867 128.597 15.4133 128.29 15.96C127.997 16.4933 127.85 17.1067 127.85 17.8C127.85 18.4933 127.997 19.1067 128.29 19.64C128.597 20.1733 129.01 20.5933 129.53 20.9C130.05 21.2067 130.643 21.36 131.31 21.36ZM134.47 22.5V19.98L134.75 17.66L134.47 15.4V13.1H135.87V22.5H134.47ZM138.709 22.5V13.1H140.109V22.5H138.709ZM140.109 17.02L139.529 16.76C139.529 15.5733 139.816 14.6333 140.389 13.94C140.976 13.2467 141.776 12.9 142.789 12.9C143.256 12.9 143.682 12.9867 144.069 13.16C144.456 13.32 144.816 13.58 145.149 13.94L144.229 14.92C144.002 14.6667 143.749 14.4867 143.469 14.38C143.202 14.2733 142.896 14.22 142.549 14.22C141.829 14.22 141.242 14.46 140.789 14.94C140.336 15.4067 140.109 16.1 140.109 17.02ZM150.647 22.7C149.7 22.7 148.853 22.4867 148.107 22.06C147.36 21.6333 146.767 21.0467 146.327 20.3C145.9 19.5533 145.687 18.7133 145.687 17.78C145.687 16.86 145.9 16.0333 146.327 15.3C146.753 14.5533 147.333 13.9667 148.067 13.54C148.8 13.1133 149.62 12.9 150.527 12.9C151.38 12.9 152.133 13.0933 152.787 13.48C153.453 13.8667 153.973 14.4067 154.347 15.1C154.733 15.78 154.927 16.5667 154.927 17.46C154.927 17.5667 154.92 17.6933 154.907 17.84C154.893 17.9733 154.867 18.1333 154.827 18.32H146.687V17.12H154.067L153.567 17.56C153.58 16.8667 153.46 16.2733 153.207 15.78C152.967 15.2733 152.613 14.8867 152.147 14.62C151.693 14.34 151.14 14.2 150.487 14.2C149.807 14.2 149.213 14.3467 148.707 14.64C148.2 14.9333 147.8 15.3467 147.507 15.88C147.227 16.4 147.087 17.02 147.087 17.74C147.087 18.46 147.233 19.0933 147.527 19.64C147.833 20.1867 148.253 20.6133 148.787 20.92C149.333 21.2267 149.96 21.38 150.667 21.38C151.24 21.38 151.767 21.28 152.247 21.08C152.727 20.8667 153.133 20.5533 153.467 20.14L154.367 21.06C153.927 21.58 153.38 21.9867 152.727 22.28C152.087 22.56 151.393 22.7 150.647 22.7ZM163.908 22.5V16.98C163.908 16.1533 163.662 15.4867 163.168 14.98C162.688 14.46 162.048 14.2 161.248 14.2C160.702 14.2 160.222 14.32 159.808 14.56C159.395 14.8 159.068 15.1267 158.828 15.54C158.588 15.9533 158.468 16.4267 158.468 16.96L157.828 16.6C157.828 15.8933 157.995 15.26 158.328 14.7C158.662 14.14 159.108 13.7 159.668 13.38C160.242 13.06 160.895 12.9 161.628 12.9C162.348 12.9 162.988 13.0733 163.548 13.42C164.108 13.7667 164.542 14.2333 164.848 14.82C165.168 15.4067 165.328 16.0467 165.328 16.74V22.5H163.908ZM157.068 22.5V13.1H158.468V22.5H157.068ZM171.827 26.66C170.881 26.66 170.034 26.48 169.287 26.12C168.554 25.7733 167.961 25.28 167.507 24.64L168.427 23.72C168.801 24.2267 169.274 24.62 169.847 24.9C170.421 25.18 171.094 25.32 171.867 25.32C172.934 25.32 173.781 25.0333 174.407 24.46C175.047 23.8867 175.367 23.1067 175.367 22.12V19.78L175.647 17.64L175.367 15.52V13.1H176.767V22.12C176.767 23.0267 176.561 23.82 176.147 24.5C175.734 25.18 175.154 25.7067 174.407 26.08C173.674 26.4667 172.814 26.66 171.827 26.66ZM171.927 22.4C171.061 22.4 170.281 22.1933 169.587 21.78C168.894 21.3667 168.347 20.8 167.947 20.08C167.547 19.36 167.347 18.5467 167.347 17.64C167.347 16.7333 167.541 15.9267 167.927 15.22C168.327 14.5 168.874 13.9333 169.567 13.52C170.261 13.1067 171.041 12.9 171.907 12.9C172.641 12.9 173.294 13.04 173.867 13.32C174.454 13.6 174.921 14 175.267 14.52C175.627 15.0267 175.847 15.6267 175.927 16.32V18.98C175.847 19.66 175.627 20.26 175.267 20.78C174.907 21.2867 174.441 21.6867 173.867 21.98C173.294 22.26 172.647 22.4 171.927 22.4ZM172.187 21.06C172.841 21.06 173.407 20.92 173.887 20.64C174.381 20.36 174.761 19.9667 175.027 19.46C175.307 18.94 175.447 18.3333 175.447 17.64C175.447 16.96 175.307 16.3667 175.027 15.86C174.761 15.3533 174.381 14.9533 173.887 14.66C173.394 14.3667 172.821 14.22 172.167 14.22C171.514 14.22 170.927 14.3667 170.407 14.66C169.901 14.9533 169.501 15.3533 169.207 15.86C168.927 16.3667 168.787 16.96 168.787 17.64C168.787 18.3067 168.934 18.9 169.227 19.42C169.521 19.94 169.921 20.3467 170.427 20.64C170.934 20.92 171.521 21.06 172.187 21.06ZM186.428 22.5V16.98C186.428 16.1533 186.181 15.4867 185.688 14.98C185.208 14.46 184.568 14.2 183.768 14.2C183.221 14.2 182.741 14.32 182.328 14.56C181.915 14.8 181.588 15.1267 181.348 15.54C181.108 15.9533 180.988 16.4267 180.988 16.96L180.348 16.6C180.348 15.8933 180.515 15.26 180.848 14.7C181.181 14.14 181.628 13.7 182.188 13.38C182.761 13.06 183.415 12.9 184.148 12.9C184.868 12.9 185.508 13.0667 186.068 13.4C186.628 13.72 187.061 14.1667 187.368 14.74C187.688 15.3133 187.848 15.98 187.848 16.74V22.5H186.428ZM179.588 22.5V8.34H180.988V22.5H179.588ZM190.467 22.5V13.1H191.887V22.5H190.467ZM191.167 11.06C190.9 11.06 190.674 10.9667 190.487 10.78C190.3 10.58 190.207 10.3467 190.207 10.08C190.207 9.8 190.3 9.56667 190.487 9.38C190.674 9.19333 190.9 9.1 191.167 9.1C191.46 9.1 191.694 9.19333 191.867 9.38C192.054 9.56667 192.147 9.8 192.147 10.08C192.147 10.3467 192.054 10.58 191.867 10.78C191.694 10.9667 191.46 11.06 191.167 11.06Z" fill="black"/>
<defs>
<clipPath id="clip0_505_760">
<rect width="30" height="30" fill="white" transform="translate(0 0.5)"/>
</clipPath>
</defs>
</svg>
