<svg width="185" height="40" viewBox="0 0 185 40" fill="none" xmlns="http://www.w3.org/2000/svg">
<rect width="40" height="40" rx="20" fill="#0F03C1"/>
<path d="M12.0838 18.76V16.84H13.1238V15.08H15.3638V16.84H17.6678V18.76H15.3638V23.08H17.7638V25H13.1238V18.76H12.0838ZM19.0363 25V13.8H21.2763V17.88H21.3563C21.5269 17.656 21.7349 17.4427 21.9803 17.24C22.5563 16.8133 23.2016 16.6 23.9163 16.6C24.9829 16.6 25.8736 17 26.5883 17.8C27.3136 18.5893 27.6763 19.6293 27.6763 20.92C27.6763 22.2107 27.3136 23.256 26.5883 24.056C25.8736 24.8453 24.9829 25.24 23.9163 25.24C23.2016 25.24 22.5563 25.0267 21.9803 24.6C21.7349 24.3973 21.5269 24.184 21.3563 23.96H21.2763V25H19.0363ZM21.8523 19.16C21.4683 19.576 21.2763 20.1627 21.2763 20.92C21.2763 21.6773 21.4683 22.2693 21.8523 22.696C22.2363 23.112 22.7376 23.32 23.3563 23.32C23.9429 23.32 24.4229 23.1067 24.7963 22.68C25.1696 22.2533 25.3563 21.6667 25.3563 20.92C25.3563 20.1733 25.1696 19.5867 24.7963 19.16C24.4229 18.7333 23.9429 18.52 23.3563 18.52C22.7376 18.52 22.2363 18.7333 21.8523 19.16Z" fill="white"/>
<path d="M48.16 14.66V13.3H57.28V14.66H53.44V24.5H52V14.66H48.16ZM58.5575 24.5V13.3H59.8375V17.7H59.8535C60.0135 17.444 60.2215 17.22 60.4775 17.028C61.0642 16.5693 61.7575 16.34 62.5575 16.34C63.5282 16.34 64.3015 16.6493 64.8775 17.268C65.4642 17.876 65.7575 18.7133 65.7575 19.78V24.5H64.4775V19.86C64.4775 19.092 64.2855 18.516 63.9015 18.132C63.5175 17.7373 62.9895 17.54 62.3175 17.54C61.5815 17.54 60.9842 17.7853 60.5255 18.276C60.0668 18.756 59.8375 19.3907 59.8375 20.18V24.5H58.5575ZM68.5428 23.476C67.7534 22.6867 67.3588 21.6947 67.3588 20.5C67.3588 19.3053 67.7534 18.3133 68.5428 17.524C69.3321 16.7347 70.3241 16.34 71.5188 16.34C72.7134 16.34 73.7054 16.7347 74.4948 17.524C75.2841 18.3133 75.6788 19.3053 75.6788 20.5C75.6788 21.6947 75.2841 22.6867 74.4948 23.476C73.7054 24.2653 72.7134 24.66 71.5188 24.66C70.3241 24.66 69.3321 24.2653 68.5428 23.476ZM69.4548 18.372C68.9108 18.9267 68.6388 19.636 68.6388 20.5C68.6388 21.364 68.9108 22.0733 69.4548 22.628C69.9988 23.1827 70.6868 23.46 71.5188 23.46C72.3508 23.46 73.0388 23.1827 73.5828 22.628C74.1268 22.0733 74.3988 21.364 74.3988 20.5C74.3988 19.636 74.1268 18.9267 73.5828 18.372C73.0388 17.8173 72.3508 17.54 71.5188 17.54C70.6868 17.54 69.9988 17.8173 69.4548 18.372ZM77.4325 24.5V16.5H78.7125V17.7H78.7285C78.8672 17.4547 79.0645 17.2307 79.3205 17.028C79.9072 16.5693 80.5845 16.34 81.3525 16.34C82.1525 16.34 82.8192 16.6067 83.3525 17.14C83.5872 17.3747 83.7738 17.6413 83.9125 17.94H83.9925C84.1525 17.6627 84.3765 17.396 84.6645 17.14C85.2832 16.6067 86.0458 16.34 86.9525 16.34C87.8165 16.34 88.5258 16.6493 89.0805 17.268C89.6352 17.8867 89.9125 18.724 89.9125 19.78V24.5H88.6325V19.86C88.6325 19.1133 88.4565 18.5427 88.1045 18.148C87.7632 17.7427 87.2992 17.54 86.7125 17.54C86.0725 17.54 85.5125 17.7853 85.0325 18.276C84.5525 18.7667 84.3125 19.348 84.3125 20.02V24.5H83.0325V19.86C83.0325 19.1133 82.8565 18.5427 82.5045 18.148C82.1632 17.7427 81.6992 17.54 81.1125 17.54C80.4725 17.54 79.9125 17.7853 79.4325 18.276C78.9525 18.7667 78.7125 19.348 78.7125 20.02V24.5H77.4325ZM92.7131 23.476C91.9665 22.676 91.5931 21.684 91.5931 20.5C91.5931 19.316 91.9665 18.3293 92.7131 17.54C93.4598 16.74 94.3665 16.34 95.4331 16.34C96.1051 16.34 96.6705 16.468 97.1291 16.724C97.5985 16.98 97.9398 17.2573 98.1531 17.556L98.2971 17.796H98.3131V16.5H99.5931V24.5H98.3131V23.22H98.2971L98.1531 23.444C97.9611 23.732 97.6305 24.0093 97.1611 24.276C96.6918 24.532 96.1158 24.66 95.4331 24.66C94.3665 24.66 93.4598 24.2653 92.7131 23.476ZM93.6411 18.372C93.1291 18.9267 92.8731 19.636 92.8731 20.5C92.8731 21.364 93.1291 22.0733 93.6411 22.628C94.1638 23.1827 94.8145 23.46 95.5931 23.46C96.3718 23.46 97.0171 23.1827 97.5291 22.628C98.0518 22.0733 98.3131 21.364 98.3131 20.5C98.3131 19.636 98.0518 18.9267 97.5291 18.372C97.0171 17.8173 96.3718 17.54 95.5931 17.54C94.8145 17.54 94.1638 17.8173 93.6411 18.372ZM101.279 22.02H102.639C102.756 22.308 102.911 22.548 103.103 22.74C103.583 23.22 104.201 23.46 104.959 23.46C105.641 23.46 106.143 23.348 106.463 23.124C106.793 22.9 106.959 22.612 106.959 22.26C106.959 22.068 106.889 21.9027 106.751 21.764C106.623 21.6253 106.409 21.5027 106.111 21.396C105.812 21.2893 105.545 21.2093 105.311 21.156C105.087 21.092 104.756 21.0173 104.319 20.932C102.559 20.5693 101.679 19.7853 101.679 18.58C101.679 17.9507 101.945 17.4227 102.479 16.996C103.012 16.5587 103.759 16.34 104.719 16.34C105.913 16.34 106.857 16.74 107.551 17.54C107.828 17.9027 108.031 18.3027 108.159 18.74H106.799C106.703 18.5267 106.564 18.3293 106.383 18.148C105.977 17.7427 105.423 17.54 104.719 17.54C104.153 17.54 103.716 17.6467 103.407 17.86C103.108 18.0733 102.959 18.3133 102.959 18.58C102.959 18.772 103.023 18.9373 103.151 19.076C103.289 19.2147 103.508 19.3373 103.807 19.444C104.105 19.5507 104.367 19.636 104.591 19.7C104.825 19.7533 105.161 19.8227 105.599 19.908C107.359 20.2707 108.239 21.0547 108.239 22.26C108.239 22.9427 107.951 23.5133 107.375 23.972C106.799 24.4307 105.993 24.66 104.959 24.66C103.657 24.66 102.655 24.2227 101.951 23.348C101.652 22.964 101.428 22.5213 101.279 22.02ZM114.399 24.5V13.3H120.159C121.279 13.3 122.159 13.572 122.799 14.116C123.439 14.66 123.759 15.348 123.759 16.18C123.759 16.98 123.466 17.6093 122.879 18.068C122.602 18.26 122.309 18.404 121.999 18.5V18.58C122.373 18.6547 122.73 18.804 123.071 19.028C123.797 19.508 124.159 20.2387 124.159 21.22C124.159 22.18 123.797 22.9693 123.071 23.588C122.357 24.196 121.359 24.5 120.079 24.5H114.399ZM116.799 17.7H119.839C120.298 17.7 120.65 17.5987 120.895 17.396C121.151 17.1827 121.279 16.9107 121.279 16.58C121.279 16.2493 121.151 15.9827 120.895 15.78C120.65 15.5667 120.298 15.46 119.839 15.46H116.799V17.7ZM116.799 22.34H119.919C120.506 22.34 120.943 22.2227 121.231 21.988C121.53 21.7533 121.679 21.444 121.679 21.06C121.679 20.676 121.53 20.3667 121.231 20.132C120.943 19.8973 120.506 19.78 119.919 19.78H116.799V22.34ZM126.271 23.556C125.556 22.756 125.199 21.7107 125.199 20.42C125.199 19.1293 125.556 18.0893 126.271 17.3C126.996 16.5 127.892 16.1 128.959 16.1C129.673 16.1 130.319 16.3133 130.895 16.74C131.14 16.9427 131.348 17.156 131.519 17.38H131.599V16.34H133.839V24.5H131.599V23.46H131.519C131.348 23.684 131.14 23.8973 130.895 24.1C130.319 24.5267 129.673 24.74 128.959 24.74C127.892 24.74 126.996 24.3453 126.271 23.556ZM128.079 18.66C127.705 19.0867 127.519 19.6733 127.519 20.42C127.519 21.1667 127.705 21.7533 128.079 22.18C128.452 22.6067 128.932 22.82 129.519 22.82C130.137 22.82 130.639 22.612 131.023 22.196C131.407 21.7693 131.599 21.1773 131.599 20.42C131.599 19.6627 131.407 19.076 131.023 18.66C130.639 18.2333 130.137 18.02 129.519 18.02C128.932 18.02 128.452 18.2333 128.079 18.66ZM135.599 24.5V16.34H137.839V17.54H137.919C138.015 17.284 138.159 17.06 138.351 16.868C138.788 16.4093 139.337 16.18 139.999 16.18H140.959V18.34H139.759C139.151 18.34 138.676 18.5053 138.335 18.836C138.004 19.156 137.839 19.604 137.839 20.18V24.5H135.599ZM142.867 23.492C142.024 22.6493 141.603 21.6253 141.603 20.42C141.603 19.2147 142.024 18.196 142.867 17.364C143.72 16.5213 144.766 16.1 146.003 16.1C147.262 16.1 148.296 16.516 149.107 17.348C149.918 18.18 150.323 19.204 150.323 20.42V20.9H143.923C144.008 21.4333 144.248 21.8867 144.643 22.26C145.038 22.6333 145.491 22.82 146.003 22.82C146.568 22.82 147.054 22.66 147.459 22.34C147.619 22.2013 147.747 22.0413 147.843 21.86H150.243C150.062 22.404 149.795 22.884 149.443 23.3C148.59 24.26 147.443 24.74 146.003 24.74C144.766 24.74 143.72 24.324 142.867 23.492ZM144.003 19.54H147.923C147.838 19.1133 147.619 18.756 147.267 18.468C146.926 18.1693 146.504 18.02 146.003 18.02C145.502 18.02 145.075 18.164 144.723 18.452C144.371 18.74 144.131 19.1027 144.003 19.54ZM151.677 24.5V16.34H153.917V17.46H153.997C154.136 17.2147 154.333 16.9907 154.589 16.788C155.176 16.3293 155.832 16.1 156.557 16.1C157.57 16.1 158.354 16.3933 158.909 16.98C159.474 17.5667 159.757 18.42 159.757 19.54V24.5H157.517V19.86C157.517 19.2627 157.368 18.8093 157.069 18.5C156.781 18.18 156.37 18.02 155.837 18.02C155.304 18.02 154.85 18.2227 154.477 18.628C154.104 19.0333 153.917 19.5507 153.917 20.18V24.5H151.677ZM162.131 23.396C161.405 22.6067 161.043 21.588 161.043 20.34C161.043 19.092 161.405 18.0733 162.131 17.284C162.856 16.4947 163.747 16.1 164.803 16.1C165.507 16.1 166.152 16.3187 166.739 16.756C166.984 16.9587 167.192 17.172 167.363 17.396H167.443V16.34H169.683V27.54H162.243V25.62H167.443V23.284H167.363C167.181 23.54 166.973 23.7587 166.739 23.94C166.163 24.3667 165.517 24.58 164.803 24.58C163.747 24.58 162.856 24.1853 162.131 23.396ZM163.939 18.644C163.555 19.06 163.363 19.6253 163.363 20.34C163.363 21.0547 163.555 21.62 163.939 22.036C164.323 22.452 164.824 22.66 165.443 22.66C166.029 22.66 166.509 22.452 166.883 22.036C167.256 21.62 167.443 21.0547 167.443 20.34C167.443 19.6253 167.256 19.06 166.883 18.644C166.509 18.228 166.029 18.02 165.443 18.02C164.824 18.02 164.323 18.228 163.939 18.644ZM171.443 24.5V13.3H173.683V17.46H173.763C173.901 17.2147 174.099 16.9907 174.355 16.788C174.941 16.3293 175.597 16.1 176.323 16.1C177.336 16.1 178.12 16.3933 178.675 16.98C179.24 17.5667 179.523 18.42 179.523 19.54V24.5H177.283V19.86C177.283 19.2627 177.133 18.8093 176.835 18.5C176.547 18.18 176.136 18.02 175.603 18.02C175.069 18.02 174.616 18.2227 174.243 18.628C173.869 19.0333 173.683 19.5507 173.683 20.18V24.5H171.443ZM181.416 14.948C181.171 14.7027 181.048 14.42 181.048 14.1C181.048 13.78 181.171 13.5027 181.416 13.268C181.672 13.0227 181.976 12.9 182.328 12.9C182.68 12.9 182.979 13.0227 183.224 13.268C183.48 13.5027 183.608 13.78 183.608 14.1C183.608 14.42 183.48 14.7027 183.224 14.948C182.979 15.1827 182.68 15.3 182.328 15.3C181.976 15.3 181.672 15.1827 181.416 14.948ZM181.208 24.5V16.34H183.448V24.5H181.208Z" fill="#0F03C1"/>
</svg>
