<svg width="40" height="40" viewBox="0 0 40 40" fill="none" xmlns="http://www.w3.org/2000/svg">
<rect width="40" height="40" rx="20" fill="#0F03C1"/>
<path d="M12.0838 18.76V16.84H13.1238V15.08H15.3638V16.84H17.6678V18.76H15.3638V23.08H17.7638V25H13.1238V18.76H12.0838ZM19.0363 25V13.8H21.2763V17.88H21.3563C21.5269 17.656 21.7349 17.4427 21.9803 17.24C22.5563 16.8133 23.2016 16.6 23.9163 16.6C24.9829 16.6 25.8736 17 26.5883 17.8C27.3136 18.5893 27.6763 19.6293 27.6763 20.92C27.6763 22.2107 27.3136 23.256 26.5883 24.056C25.8736 24.8453 24.9829 25.24 23.9163 25.24C23.2016 25.24 22.5563 25.0267 21.9803 24.6C21.7349 24.3973 21.5269 24.184 21.3563 23.96H21.2763V25H19.0363ZM21.8523 19.16C21.4683 19.576 21.2763 20.1627 21.2763 20.92C21.2763 21.6773 21.4683 22.2693 21.8523 22.696C22.2363 23.112 22.7376 23.32 23.3563 23.32C23.9429 23.32 24.4229 23.1067 24.7963 22.68C25.1696 22.2533 25.3563 21.6667 25.3563 20.92C25.3563 20.1733 25.1696 19.5867 24.7963 19.16C24.4229 18.7333 23.9429 18.52 23.3563 18.52C22.7376 18.52 22.2363 18.7333 21.8523 19.16Z" fill="white"/>
</svg>
