<svg width="40" height="40" viewBox="0 0 40 40" fill="none" xmlns="http://www.w3.org/2000/svg">
<rect width="40" height="40" rx="15" fill="#FFC3B1"/>
<path fill-rule="evenodd" clip-rule="evenodd" d="M27.5 25C28.19 25 28.75 25.56 28.75 26.25C28.75 26.94 28.19 27.5 27.5 27.5H12.5C11.81 27.5 11.25 26.94 11.25 26.25C11.25 25.56 11.81 25 12.5 25H27.5ZM27.5 18.75C28.19 18.75 28.75 19.31 28.75 20C28.75 20.69 28.19 21.25 27.5 21.25H12.5C11.81 21.25 11.25 20.69 11.25 20C11.25 19.31 11.81 18.75 12.5 18.75H27.5ZM27.5 12.5C28.19 12.5 28.75 13.06 28.75 13.75C28.75 14.44 28.19 15 27.5 15H12.5C11.81 15 11.25 14.44 11.25 13.75C11.25 13.06 11.81 12.5 12.5 12.5H27.5Z" fill="#F24E1E"/>
</svg>
