<svg width="40" height="41" viewBox="0 0 40 41" fill="none" xmlns="http://www.w3.org/2000/svg">
<g clip-path="url(#clip0_213_726)">
<path d="M25.8333 11.8622C26.975 11.9001 28.055 12.3894 28.8362 13.2228C29.6174 14.0562 30.036 15.1655 30 16.3072C30 18.5289 28.135 18.5289 25.8333 18.5289C23.5317 18.5289 21.6667 18.5289 21.6667 16.3072C21.6307 15.1655 22.0493 14.0562 22.8305 13.2228C23.6117 12.3894 24.6917 11.9001 25.8333 11.8622ZM40 20.1956C40 16.2399 38.827 12.3731 36.6294 9.08416C34.4318 5.79518 31.3082 3.23173 27.6537 1.71798C23.9992 0.204222 19.9778 -0.191844 16.0982 0.57986C12.2186 1.35156 8.65492 3.25638 5.85787 6.05343C3.06082 8.85048 1.15601 12.4141 0.384303 16.2938C-0.387401 20.1734 0.00866572 24.1947 1.52242 27.8492C3.03617 31.5038 5.59962 34.6273 8.8886 36.825C12.1776 39.0226 16.0444 40.1956 20 40.1956C25.3026 40.1898 30.3863 38.0809 34.1358 34.3314C37.8853 30.5819 39.9943 25.4981 40 20.1956ZM35 20.1956C35 23.1623 34.1203 26.0624 32.4721 28.5291C30.8238 30.9959 28.4812 32.9184 25.7403 34.0538C22.9994 35.1891 19.9834 35.4861 17.0737 34.9073C14.1639 34.3286 11.4912 32.9 9.39341 30.8022C7.29562 28.7044 5.86701 26.0316 5.28823 23.1219C4.70945 20.2122 5.0065 17.1962 6.14182 14.4553C7.27713 11.7144 9.19972 9.37174 11.6665 7.72352C14.1332 6.0753 17.0333 5.19557 20 5.19557C23.9769 5.19998 27.7896 6.78175 30.6017 9.59384C33.4138 12.4059 34.9956 16.2187 35 20.1956ZM29.2617 26.1356C29.7205 25.6668 29.9766 25.0365 29.975 24.3806C29.9733 23.7246 29.7139 23.0956 29.2527 22.6292C28.7915 22.1628 28.1655 21.8963 27.5096 21.8872C26.8538 21.8781 26.2206 22.1271 25.7467 22.5806C24.1768 24.0693 22.1538 24.9899 20 25.1956C17.8501 24.9906 15.8304 24.0732 14.2617 22.5889C13.7887 22.1348 13.1563 21.8847 12.5007 21.8925C11.8451 21.9002 11.2188 22.1652 10.7567 22.6304C10.2946 23.0955 10.0337 23.7236 10.0303 24.3792C10.0269 25.0349 10.2811 25.6656 10.7383 26.1356C13.2477 28.5425 16.5296 29.9811 20 30.1956C23.4705 29.9811 26.7523 28.5425 29.2617 26.1356ZM18.3333 16.0289C18.3333 15.3659 18.07 14.73 17.6011 14.2611C17.1323 13.7923 16.4964 13.5289 15.8333 13.5289H12.5C11.837 13.5289 11.2011 13.7923 10.7322 14.2611C10.2634 14.73 10 15.3659 10 16.0289C10 16.6919 10.2634 17.3278 10.7322 17.7967C11.2011 18.2655 11.837 18.5289 12.5 18.5289H15.8333C16.4964 18.5289 17.1323 18.2655 17.6011 17.7967C18.07 17.3278 18.3333 16.6919 18.3333 16.0289Z" fill="#F24E1E"/>
</g>
<defs>
<clipPath id="clip0_213_726">
<rect width="40" height="40" fill="white" transform="translate(0 0.195557)"/>
</clipPath>
</defs>
</svg>
