<svg width="31" height="31" viewBox="0 0 31 31" fill="none" xmlns="http://www.w3.org/2000/svg">
<g clip-path="url(#clip0_211_570)">
<path d="M0.332031 26.7294C0.332031 28.866 2.06395 30.5977 4.20027 30.5977H26.4637C28.6004 30.5977 30.332 28.8657 30.332 26.7294V4.46602C30.332 2.32934 28.6001 0.597656 26.4638 0.597656H4.20039C2.06371 0.597656 0.332031 2.32957 0.332031 4.4659V26.7294Z" fill="#563D7C"/>
<path d="M12.6304 14.1691V10.6607H15.7185C16.0127 10.6607 16.2963 10.6852 16.5694 10.7343C16.8425 10.7832 17.0841 10.8707 17.2942 10.9968C17.5042 11.1229 17.6723 11.298 17.7984 11.522C17.9244 11.7461 17.9875 12.0333 17.9875 12.3833C17.9875 13.0136 17.7984 13.4688 17.4202 13.7489C17.0421 14.029 16.5589 14.1691 15.9706 14.1691H12.6304ZM9.33203 8.09766V23.0977H16.6009C17.2732 23.0977 17.928 23.0137 18.5653 22.8456C19.2025 22.6775 19.7697 22.4184 20.2669 22.0683C20.7641 21.7181 21.1598 21.2664 21.4539 20.7132C21.7481 20.16 21.8951 19.5052 21.8951 18.7489C21.8951 17.8105 21.6675 17.0087 21.2123 16.3435C20.7571 15.6782 20.0673 15.2125 19.1429 14.9464C19.8152 14.6243 20.323 14.2111 20.6661 13.7069C21.0092 13.2027 21.1808 12.5725 21.1808 11.8161C21.1808 11.1158 21.0652 10.5277 20.8341 10.0514C20.603 9.5753 20.2774 9.19362 19.8572 8.9065C19.4371 8.61937 18.9329 8.41275 18.3446 8.28675C17.7564 8.16066 17.1051 8.09766 16.3908 8.09766H9.33203ZM12.6304 20.5346V16.4169H16.2227C16.937 16.4169 17.5113 16.5815 17.9455 16.9107C18.3796 17.2398 18.5968 17.7895 18.5968 18.5598C18.5968 18.952 18.5302 19.2741 18.3972 19.5262C18.2641 19.7783 18.0855 19.9779 17.8614 20.1249C17.6374 20.272 17.3782 20.377 17.0841 20.4401C16.7899 20.503 16.4819 20.5346 16.1597 20.5346H12.6304Z" fill="white"/>
</g>
<defs>
<clipPath id="clip0_211_570">
<rect x="0.332031" y="0.597656" width="30" height="30" rx="15" fill="white"/>
</clipPath>
</defs>
</svg>
