<svg width="104" height="31" viewBox="0 0 104 31" fill="none" xmlns="http://www.w3.org/2000/svg">
<g clip-path="url(#clip0_213_705)">
<path d="M0.846229 23.8734V12.408H15.1615V11.7374H0.846229V1.27763H16.0665V0.607178H0.175781V24.5439H16.2005V23.8734H0.846229ZM29.1079 7.31206L23.174 15.1234L17.374 7.31226H16.5023L22.7716 15.6265L15.8987 24.5437H16.7034L23.1736 16.1289L29.6775 24.5437H30.5156L23.6095 15.6261L29.9121 7.31186H29.1077L29.1079 7.31206ZM32.5273 30.4443V19.7165H32.5943C32.9967 21.281 33.7901 22.5382 34.9747 23.4881C36.1592 24.4379 37.6677 24.9129 39.5004 24.9129C40.685 24.9129 41.7355 24.6727 42.6518 24.1922C43.5682 23.7117 44.3336 23.0579 44.9483 22.2309C45.5628 21.4039 46.0322 20.4429 46.3564 19.3477C46.6803 18.2527 46.8425 17.1016 46.8425 15.8949C46.8425 14.5984 46.6747 13.4026 46.3395 12.3076C46.0043 11.2124 45.5181 10.2625 44.8813 9.45801C44.2442 8.65336 43.4732 8.02738 42.5679 7.58068C41.6629 7.13358 40.6403 6.91003 39.5004 6.91003C38.6287 6.91003 37.8186 7.03861 37.0699 7.29556C36.3212 7.55271 35.6564 7.9157 35.0753 8.38514C34.4908 8.85818 33.982 9.41778 33.5666 10.0446C33.142 10.6816 32.8179 11.38 32.5943 12.14H32.5273V7.31206H31.8569V30.4443H32.5273ZM39.5004 24.2757C37.3997 24.2757 35.7121 23.5549 34.4382 22.1134C33.1643 20.6719 32.5273 18.5988 32.5273 15.8945C32.5273 14.7769 32.6838 13.7153 32.9967 12.7096C33.3096 11.704 33.7622 10.821 34.3543 10.0613C34.9467 9.30127 35.6787 8.69782 36.5502 8.25093C37.4218 7.80383 38.4054 7.58028 39.5004 7.58028C40.6179 7.58028 41.5958 7.80383 42.4339 8.25093C43.272 8.69782 43.965 9.3069 44.5125 10.078C45.06 10.849 45.4735 11.7319 45.7529 12.7263C46.0322 13.721 46.1719 14.7769 46.1719 15.8945C46.1719 16.9003 46.0435 17.9006 45.7863 18.895C45.5294 19.8896 45.1326 20.7836 44.5962 21.5772C44.0599 22.3704 43.3728 23.0185 42.5345 23.5215C41.6963 24.0244 40.685 24.2757 39.5004 24.2757ZM50.5302 24.5439V14.7882C50.5302 13.8495 50.6642 12.933 50.9326 12.0392C51.2006 11.1452 51.6141 10.3572 52.1729 9.67573C52.7317 8.99401 53.4412 8.45757 54.3018 8.06641C55.1622 7.67525 56.1847 7.51327 57.3693 7.58028V6.90983C56.3411 6.8877 55.4416 6.99917 54.6706 7.24505C53.8993 7.49094 53.2345 7.82616 52.6757 8.25093C52.117 8.67549 51.6701 9.17269 51.3348 9.74273C50.9999 10.3119 50.7513 10.9276 50.5972 11.5698H50.5302V7.31206H49.8597V24.5441L50.5302 24.5439ZM58.2073 16.0621H72.623C72.6678 14.8775 72.5505 13.7379 72.271 12.6426C71.9918 11.5474 71.5447 10.5752 70.9301 9.72603C70.3154 8.8767 69.522 8.19499 68.5498 7.68088C67.5775 7.16678 66.4209 6.90983 65.08 6.90983C64.1188 6.90983 63.1802 7.11104 62.2638 7.51347C61.3475 7.9157 60.5428 8.50224 59.8501 9.2733C59.1573 10.0444 58.5985 10.9887 58.1739 12.1064C57.7494 13.2237 57.5369 14.4976 57.5369 15.9281C57.5369 17.202 57.6822 18.3922 57.9727 19.4984C58.2633 20.6047 58.7102 21.5659 59.3136 22.3816C59.9173 23.1974 60.694 23.8288 61.6437 24.2757C62.5934 24.7228 63.7389 24.9351 65.08 24.9127C67.0467 24.9127 68.7007 24.3594 70.0416 23.2533C71.3827 22.1468 72.1761 20.588 72.422 18.5765H71.7515C71.461 20.4763 70.7177 21.9011 69.522 22.8509C68.3262 23.8008 66.8234 24.2757 65.0128 24.2757C63.7836 24.2757 62.7443 24.0634 61.895 23.6388C61.0459 23.2143 60.3529 22.633 59.8165 21.8955C59.2802 21.1579 58.8834 20.2918 58.6265 19.2972C58.3693 18.3028 58.2297 17.2243 58.2073 16.0621ZM71.9525 15.3916H58.2075C58.2743 14.1847 58.4979 13.1008 58.8778 12.1398C59.2579 11.1786 59.7551 10.3572 60.3698 9.67573C60.9843 8.99401 61.6996 8.47448 62.5154 8.11672C63.3311 7.75916 64.2084 7.58028 65.147 7.58028C66.2646 7.58028 67.2477 7.78713 68.0973 8.20062C68.9464 8.61412 69.6561 9.17853 70.2261 9.89364C70.7959 10.6088 71.2261 11.4414 71.5167 12.3911C71.8072 13.3411 71.9525 14.3413 71.9525 15.3916ZM86.536 12.408H87.2064C87.2064 10.4858 86.6476 9.08899 85.5303 8.21732C84.4126 7.34566 82.8928 6.90983 80.9708 6.90983C79.8979 6.90983 78.9928 7.04404 78.2552 7.31226C77.5177 7.58028 76.9143 7.92677 76.4448 8.35133C75.9756 8.7759 75.6404 9.24533 75.4392 9.75943C75.238 10.2735 75.1374 10.7653 75.1374 11.2345C75.1374 12.1732 75.305 12.9219 75.6404 13.4807C75.9756 14.0395 76.5008 14.4753 77.2159 14.7882C77.7077 15.0115 78.2662 15.2128 78.8922 15.3918C79.518 15.5705 80.2444 15.7605 81.0714 15.9615C81.8088 16.1406 82.5352 16.3192 83.2505 16.4979C83.9657 16.6768 84.5971 16.917 85.1446 17.2187C85.6923 17.5205 86.1392 17.906 86.4857 18.3755C86.832 18.8447 87.0052 19.4594 87.0052 20.2192C87.0052 20.9568 86.8322 21.5826 86.4857 22.0965C86.1421 22.6079 85.69 23.0373 85.1615 23.3539C84.625 23.6779 84.027 23.9125 83.3678 24.0578C82.7085 24.203 82.066 24.2757 81.4402 24.2757C79.4063 24.2757 77.8473 23.8231 76.7634 22.9181C75.6794 22.0128 75.1376 20.588 75.1376 18.6435H74.4669C74.4669 20.8116 75.0536 22.3983 76.2269 23.4042C77.4004 24.4099 79.1381 24.9127 81.4402 24.9127C82.1777 24.9127 82.9207 24.8288 83.6697 24.6612C84.4182 24.4936 85.0888 24.2199 85.681 23.8398C86.2682 23.4651 86.7614 22.9605 87.1225 22.3649C87.4913 21.7613 87.6758 21.0238 87.6758 20.1522C87.6758 19.3252 87.5137 18.6547 87.1897 18.1406C86.8656 17.6267 86.441 17.202 85.9156 16.8667C85.3904 16.5315 84.7983 16.2689 84.1389 16.079C83.4758 15.8879 82.8108 15.7035 82.1441 15.5256C81.3235 15.3104 80.5021 15.0981 79.68 14.8888C78.9761 14.7099 78.3224 14.4976 77.7189 14.2518C77.1378 14.0059 76.674 13.6539 76.3275 13.1958C75.981 12.7376 75.808 12.0839 75.808 11.2345C75.808 11.0782 75.8527 10.7987 75.942 10.3965C76.0313 9.99405 76.2438 9.58619 76.5791 9.17269C76.9143 8.7594 77.4282 8.39057 78.1212 8.06641C78.8139 7.74246 79.7639 7.58028 80.9708 7.58028C81.7978 7.58028 82.5519 7.66982 83.2336 7.8485C83.9154 8.02738 84.5021 8.3123 84.9937 8.70346C85.4854 9.09462 85.8653 9.59182 86.1335 10.1953C86.4018 10.7989 86.536 11.5364 86.536 12.408ZM102.058 12.408H102.728C102.728 10.4858 102.17 9.08899 101.052 8.21732C99.9347 7.34566 98.4149 6.90983 96.4927 6.90983C95.42 6.90983 94.5147 7.04404 93.7773 7.31226C93.0396 7.58028 92.4362 7.92677 91.967 8.35133C91.4975 8.7759 91.1623 9.24533 90.9611 9.75943C90.7599 10.2735 90.6595 10.7653 90.6595 11.2345C90.6595 12.1732 90.8271 12.9219 91.1625 13.4807C91.4975 14.0395 92.0229 14.4753 92.738 14.7882C93.2298 15.0115 93.7884 15.2128 94.4141 15.3918C95.0399 15.5705 95.7663 15.7605 96.5933 15.9615C97.3309 16.1406 98.0573 16.3192 98.7724 16.4979C99.4878 16.6768 100.119 16.917 100.667 17.2187C101.214 17.5205 101.661 17.906 102.008 18.3755C102.354 18.8447 102.527 19.4594 102.527 20.2192C102.527 20.9568 102.354 21.5826 102.008 22.0965C101.664 22.6079 101.212 23.0372 100.684 23.3539C100.147 23.6779 99.5491 23.9125 98.8898 24.0578C98.2306 24.203 97.5879 24.2757 96.9621 24.2757C94.9282 24.2757 93.3694 23.8231 92.2855 22.9181C91.2013 22.0128 90.6595 20.588 90.6595 18.6435H89.989C89.989 20.8116 90.5756 22.3983 91.749 23.4042C92.9223 24.4099 94.66 24.9127 96.9621 24.9127C97.6998 24.9127 98.4429 24.8288 99.1916 24.6612C99.9401 24.4936 100.611 24.2199 101.203 23.8398C101.79 23.4651 102.283 22.9605 102.645 22.3649C103.013 21.7613 103.198 21.0238 103.198 20.1522C103.198 19.3252 103.036 18.6547 102.712 18.1406C102.388 17.6267 101.963 17.202 101.438 16.8667C100.913 16.5315 100.32 16.2689 99.661 16.079C98.9979 15.8879 98.3329 15.7035 97.6662 15.5256C96.8456 15.3104 96.0242 15.0981 95.2021 14.8888C94.498 14.7099 93.8443 14.4976 93.2408 14.2518C92.6597 14.0059 92.1959 13.6539 91.8496 13.1958C91.5032 12.7376 91.3299 12.0839 91.3299 11.2345C91.3299 11.0782 91.3746 10.7987 91.4641 10.3965C91.5535 9.99405 91.7659 9.58619 92.101 9.17269C92.4362 8.7594 92.9503 8.39057 93.6431 8.06641C94.3361 7.74246 95.2858 7.58028 96.4929 7.58028C97.3199 7.58028 98.074 7.66982 98.7557 7.8485C99.4375 8.02738 100.024 8.3123 100.516 8.70346C101.008 9.09462 101.387 9.59182 101.656 10.1953C101.924 10.7989 102.058 11.5364 102.058 12.408H102.058Z" fill="#222222"/>
</g>
<defs>
<clipPath id="clip0_213_705">
<rect width="103.022" height="30" fill="white" transform="translate(0.175781 0.597656)"/>
</clipPath>
</defs>
</svg>
