<svg width="21" height="31" viewBox="0 0 21 31" fill="none" xmlns="http://www.w3.org/2000/svg">
<path d="M5.27832 30.5977C8.03832 30.5977 10.2783 28.3577 10.2783 25.5977V20.5977H5.27832C2.51832 20.5977 0.27832 22.8377 0.27832 25.5977C0.27832 28.3577 2.51832 30.5977 5.27832 30.5977Z" fill="#0ACF83"/>
<path d="M0.27832 15.5977C0.27832 12.8377 2.51832 10.5977 5.27832 10.5977H10.2783V20.5977H5.27832C2.51832 20.5977 0.27832 18.3577 0.27832 15.5977Z" fill="#A259FF"/>
<path d="M0.27832 5.59766C0.27832 2.83766 2.51832 0.597656 5.27832 0.597656H10.2783V10.5977H5.27832C2.51832 10.5977 0.27832 8.35766 0.27832 5.59766Z" fill="#F24E1E"/>
<path d="M10.2783 0.597656H15.2783C18.0383 0.597656 20.2783 2.83766 20.2783 5.59766C20.2783 8.35766 18.0383 10.5977 15.2783 10.5977H10.2783V0.597656Z" fill="#FF7262"/>
<path d="M20.2783 15.5977C20.2783 18.3577 18.0383 20.5977 15.2783 20.5977C12.5183 20.5977 10.2783 18.3577 10.2783 15.5977C10.2783 12.8377 12.5183 10.5977 15.2783 10.5977C18.0383 10.5977 20.2783 12.8377 20.2783 15.5977Z" fill="#1ABCFE"/>
</svg>
