<svg width="31" height="31" viewBox="0 0 31 31" fill="none" xmlns="http://www.w3.org/2000/svg">
<path d="M29.6314 14.2615L16.533 1.16366C16.3536 0.984218 16.1406 0.841874 15.9062 0.744758C15.6718 0.647642 15.4205 0.597656 15.1668 0.597656C14.9131 0.597656 14.6619 0.647642 14.4274 0.744758C14.193 0.841874 13.9801 0.984218 13.8007 1.16366L11.0808 3.88386L14.5311 7.33396C14.9367 7.19603 15.3728 7.17444 15.79 7.27164C16.2072 7.36884 16.5888 7.58094 16.8917 7.88391C17.1962 8.1888 17.4088 8.57318 17.5052 8.99315C17.6016 9.41311 17.5779 9.85173 17.4369 10.2589L20.7616 13.5842C21.5661 13.3071 22.4945 13.4865 23.1368 14.13C23.3504 14.3434 23.5198 14.5968 23.6353 14.8757C23.7509 15.1546 23.8104 15.4536 23.8104 15.7555C23.8104 16.0574 23.7509 16.3563 23.6353 16.6352C23.5198 16.9142 23.3504 17.1676 23.1368 17.381C22.7611 17.757 22.2667 17.9913 21.7377 18.0438C21.2087 18.0964 20.6779 17.964 20.2355 17.6691C19.7932 17.3743 19.4667 16.9353 19.3116 16.4269C19.1565 15.9184 19.1824 15.3719 19.3849 14.8804L16.284 11.7795L16.2837 19.9401C16.5085 20.0513 16.7138 20.1981 16.8917 20.3749C17.1052 20.5884 17.2746 20.8418 17.3902 21.1208C17.5057 21.3997 17.5652 21.6987 17.5652 22.0007C17.5652 22.3026 17.5057 22.6016 17.3902 22.8806C17.2746 23.1595 17.1052 23.413 16.8917 23.6265C15.9934 24.5247 14.5376 24.5247 13.6407 23.6265C13.3728 23.3587 13.1752 23.0289 13.0654 22.6664C12.9557 22.3038 12.9372 21.9198 13.0117 21.5484C13.0861 21.177 13.2512 20.8297 13.4922 20.5375C13.7332 20.2453 14.0427 20.0171 14.3931 19.8734V11.6367C14.1112 11.5216 13.8554 11.3509 13.6407 11.1349C12.9604 10.4554 12.7968 9.45718 13.1454 8.62169L9.74437 5.22003L0.763333 14.2006C0.583868 14.3801 0.441508 14.5932 0.344382 14.8276C0.247256 15.0621 0.197266 15.3134 0.197266 15.5672C0.197266 15.821 0.247256 16.0723 0.344382 16.3068C0.441508 16.5413 0.583868 16.7543 0.763333 16.9338L13.8618 30.0319C14.2241 30.3941 14.7155 30.5977 15.2279 30.5977C15.7403 30.5977 16.2317 30.3941 16.5941 30.0319L29.6314 16.9949C29.9937 16.6323 30.1973 16.1408 30.1973 15.6282C30.1973 15.1156 29.9937 14.624 29.6314 14.2615Z" fill="#DE4C36"/>
</svg>
