<svg width="31" height="31" viewBox="0 0 31 31" fill="none" xmlns="http://www.w3.org/2000/svg">
<path d="M15.1973 0.597656C6.91409 0.597656 0.197266 7.48328 0.197266 15.9774C0.197266 22.7726 4.49523 28.5376 10.4553 30.5712C11.2049 30.7136 11.4802 30.2376 11.4802 29.8314C11.4802 29.4647 11.4662 28.253 11.4598 26.9679C7.28666 27.8983 6.40611 25.1533 6.40611 25.1533C5.72378 23.3756 4.74063 22.903 4.74063 22.903C3.37974 21.9484 4.84322 21.968 4.84322 21.968C6.34952 22.0765 7.14267 23.5529 7.14267 23.5529C8.4805 25.9042 10.6517 25.2244 11.5077 24.8315C11.6423 23.8374 12.0311 23.159 12.46 22.7749C9.12836 22.3859 5.6259 21.0672 5.6259 15.1742C5.6259 13.4951 6.21188 12.1231 7.17149 11.046C7.01573 10.6586 6.50234 9.0944 7.31678 6.97595C7.31678 6.97595 8.57638 6.56258 11.4429 8.55245C12.6393 8.21158 13.9225 8.04078 15.1973 8.03499C16.4721 8.04078 17.7563 8.21158 18.9551 8.55245C21.8181 6.56258 23.076 6.97595 23.076 6.97595C23.8924 9.0944 23.3788 10.6586 23.223 11.046C24.1848 12.1231 24.7668 13.495 24.7668 15.1742C24.7668 21.0812 21.2577 22.382 17.9176 22.7626C18.4556 23.2399 18.935 24.1759 18.935 25.6107C18.935 27.6685 18.9175 29.3247 18.9175 29.8314C18.9175 30.2406 19.1875 30.7202 19.948 30.5692C25.9047 28.5332 30.1973 22.7704 30.1973 15.9774C30.1973 7.48328 23.4814 0.597656 15.1973 0.597656Z" fill="#161614"/>
<path d="M5.81582 22.5064C5.78288 22.5828 5.66547 22.6057 5.55877 22.5533C5.44995 22.5031 5.38878 22.3989 5.42407 22.3222C5.45642 22.2436 5.57383 22.2216 5.68241 22.2745C5.79147 22.3245 5.85358 22.4297 5.81582 22.5064ZM6.55368 23.1814C6.48215 23.2494 6.34227 23.2178 6.24733 23.1104C6.14922 23.0031 6.13087 22.8598 6.20345 22.7907C6.27721 22.7228 6.41286 22.7545 6.51121 22.8619C6.60932 22.9703 6.62838 23.1128 6.55356 23.1815M7.05989 24.045C6.9679 24.1105 6.81755 24.0491 6.72473 23.9124C6.63285 23.7757 6.63285 23.6116 6.72673 23.5459C6.8199 23.4802 6.9679 23.5393 7.06201 23.675C7.15377 23.8141 7.15377 23.9781 7.05978 24.0452M7.91586 25.0453C7.83363 25.1382 7.65858 25.1134 7.53035 24.9865C7.39929 24.8625 7.36271 24.6865 7.44517 24.5935C7.52835 24.5004 7.70446 24.5266 7.83363 24.6524C7.96386 24.7761 8.00362 24.9534 7.91598 25.0453M9.02218 25.3831C8.98606 25.5035 8.81736 25.5582 8.64748 25.5071C8.47784 25.4544 8.36679 25.3132 8.40102 25.1915C8.43632 25.0703 8.60572 25.0133 8.77689 25.068C8.9463 25.1205 9.05759 25.2605 9.02229 25.3831M10.2814 25.5263C10.2857 25.6532 10.1415 25.7583 9.9632 25.7606C9.7838 25.7646 9.63874 25.662 9.63686 25.5372C9.63686 25.4091 9.77768 25.3049 9.95697 25.3019C10.1353 25.2983 10.2814 25.4002 10.2814 25.5263ZM11.5183 25.4776C11.5397 25.6014 11.4157 25.7285 11.2387 25.7623C11.0646 25.7949 10.9034 25.7185 10.8812 25.5959C10.8595 25.469 10.9859 25.342 11.1596 25.309C11.337 25.2774 11.4957 25.3518 11.5183 25.4776Z" fill="#161614"/>
</svg>
