<svg width="27" height="31" viewBox="0 0 27 31" fill="none" xmlns="http://www.w3.org/2000/svg">
<g clip-path="url(#clip0_213_697)">
<path d="M2.92982 27.4551L0.736328 0.647705L26.9323 0.701576L24.6129 27.4551L13.9332 30.5475L2.92982 27.4551Z" fill="#E9CA32"/>
<path d="M13.9336 27.9587V3.20093L24.7213 3.23684L22.7976 25.3875L13.9336 27.9587Z" fill="#FFDE25"/>
<path d="M12.7783 6.14038H9.92632V22.6185L7.70811 22.196V19.9778L5.06738 19.5553V24.5198L12.7783 26.5268V6.14038ZM14.9177 6.14038H22.8131L22.2849 9.29869H17.9317V14.4815H22.2849L21.7568 24.9423L14.9177 26.5268V23.2523L19.5386 21.6678L19.8054 17.3371L14.9177 18.0448V6.14038Z" fill="white"/>
</g>
<defs>
<clipPath id="clip0_213_697">
<rect width="26.196" height="30" fill="white" transform="translate(0.736328 0.597656)"/>
</clipPath>
</defs>
</svg>
