<svg width="31" height="31" viewBox="0 0 31 31" fill="none" xmlns="http://www.w3.org/2000/svg">
<g clip-path="url(#clip0_211_593)">
<path d="M14.3512 0.621103C14.2867 0.626962 14.0817 0.647467 13.8971 0.662114C9.64069 1.04587 5.65378 3.34252 3.12863 6.87245C1.72252 8.83514 0.823196 11.0615 0.483385 13.4197C0.36328 14.2428 0.348633 14.486 0.348633 15.6021C0.348633 16.7182 0.36328 16.9613 0.483385 17.7845C1.29776 23.4118 5.30225 28.1399 10.7334 29.8917C11.7059 30.2051 12.7312 30.419 13.8971 30.5479C14.3512 30.5977 16.3139 30.5977 16.7679 30.5479C18.7804 30.3252 20.4853 29.8272 22.1668 28.9689C22.4246 28.8371 22.4744 28.8019 22.4392 28.7726C22.4158 28.7551 21.3173 27.2816 19.9991 25.5005L17.6028 22.2635L14.6002 17.8196C12.948 15.3765 11.5887 13.3786 11.577 13.3786C11.5653 13.3757 11.5536 15.3501 11.5477 17.761C11.5389 21.9823 11.536 22.1522 11.4833 22.2518C11.4071 22.3953 11.3485 22.4539 11.2255 22.5184C11.1318 22.5652 11.0497 22.574 10.6074 22.574H10.1006L9.96586 22.4891C9.87798 22.4334 9.81353 22.3602 9.76959 22.2752L9.70807 22.1434L9.71393 16.27L9.72272 10.3936L9.81353 10.2793C9.8604 10.2178 9.96 10.1387 10.0303 10.1006C10.1504 10.0421 10.1973 10.0362 10.7041 10.0362C11.3017 10.0362 11.4013 10.0596 11.5565 10.2295C11.6005 10.2764 13.2263 12.7254 15.1714 15.6753C17.1165 18.6252 19.7764 22.6531 21.0829 24.6305L23.4558 28.2249L23.5759 28.1458C24.6392 27.4544 25.7641 26.4701 26.6547 25.4449C28.55 23.2683 29.7715 20.6143 30.1817 17.7845C30.3018 16.9613 30.3164 16.7182 30.3164 15.6021C30.3164 14.486 30.3018 14.2428 30.1817 13.4197C29.3673 7.79228 25.3628 3.06422 19.9317 1.31244C18.9738 1.00192 17.9543 0.788079 16.8119 0.659185C16.5306 0.629891 14.5943 0.597668 14.3512 0.621103ZM20.4853 9.68467C20.626 9.75498 20.7402 9.88973 20.7812 10.0303C20.8046 10.1065 20.8105 11.7353 20.8046 15.4058L20.7959 20.6729L19.8672 19.2492L18.9357 17.8255V13.9967C18.9357 11.5214 18.9474 10.1299 18.965 10.0626C19.0119 9.89852 19.1144 9.76962 19.255 9.69346C19.3751 9.63194 19.419 9.62608 19.879 9.62608C20.3125 9.62608 20.3887 9.63194 20.4853 9.68467Z" fill="black"/>
<path d="M23.31 28.2893C23.2075 28.3537 23.1753 28.3977 23.2661 28.3479C23.3305 28.3098 23.436 28.2307 23.4184 28.2278C23.4096 28.2278 23.3598 28.2571 23.31 28.2893ZM23.1079 28.4211C23.0552 28.4621 23.0552 28.4651 23.1196 28.4328C23.1548 28.4153 23.1841 28.3948 23.1841 28.3889C23.1841 28.3655 23.1694 28.3713 23.1079 28.4211ZM22.9614 28.509C22.9087 28.55 22.9087 28.5529 22.9732 28.5207C23.0083 28.5031 23.0376 28.4826 23.0376 28.4768C23.0376 28.4533 23.023 28.4592 22.9614 28.509ZM22.815 28.5969C22.7622 28.6379 22.7622 28.6408 22.8267 28.6086C22.8618 28.591 22.8911 28.5705 22.8911 28.5647C22.8911 28.5412 22.8765 28.5471 22.815 28.5969ZM22.5923 28.7141C22.481 28.7727 22.4869 28.7961 22.5982 28.7404C22.648 28.7141 22.6861 28.6877 22.6861 28.6818C22.6861 28.6613 22.6831 28.6643 22.5923 28.7141Z" fill="black"/>
</g>
<defs>
<clipPath id="clip0_211_593">
<rect width="30" height="30" fill="white" transform="translate(0.333008 0.597656)"/>
</clipPath>
</defs>
</svg>
