<svg width="31" height="31" viewBox="0 0 31 31" fill="none" xmlns="http://www.w3.org/2000/svg">
<g clip-path="url(#clip0_211_587)">
<path d="M13.7823 0.978583C14.598 0.554647 15.6604 0.552732 16.4754 0.978583C20.5755 3.0822 24.6768 5.18252 28.7762 7.28741C29.5472 7.68177 30.063 8.46092 30.0551 9.26763V21.9238C30.0609 22.7639 29.4942 23.5617 28.6807 23.9471C24.5941 26.0391 20.5096 28.1337 16.4237 30.2257C15.5911 30.6579 14.5074 30.6246 13.7009 30.157C12.4757 29.5121 11.2484 28.8704 10.0231 28.2261C9.77277 28.0906 9.49053 27.9827 9.31373 27.7623C9.47003 27.571 9.74946 27.5472 9.97652 27.4637C10.4879 27.316 10.9576 27.079 11.4275 26.849C11.5463 26.7752 11.6913 26.8035 11.8052 26.8695C12.8528 27.415 13.8912 27.9762 14.9424 28.5165C15.1667 28.634 15.3937 28.4779 15.5854 28.3809C19.5956 26.3229 23.6108 24.2727 27.6203 22.2141C27.7688 22.1492 27.851 22.006 27.8389 21.8583C27.8417 17.6833 27.8396 13.5075 27.8403 9.33252C27.8573 9.16486 27.7504 9.01071 27.5835 8.94209C23.5111 6.85965 19.4407 4.77401 15.369 2.69103C15.2985 2.64699 15.2149 2.62336 15.1293 2.62325C15.0437 2.62314 14.96 2.64654 14.8893 2.69039C10.8176 4.77401 6.748 6.86156 2.67628 8.9439C2.50991 9.01263 2.39825 9.16422 2.41805 9.33252C2.41876 13.5075 2.41805 17.6833 2.41805 21.8589C2.41099 21.931 2.42843 22.0033 2.46802 22.0662C2.50762 22.129 2.56746 22.1793 2.63949 22.2103C3.72605 22.7698 4.81401 23.3253 5.90128 23.8828C6.5138 24.1822 7.26586 24.3601 7.94071 24.1307C8.53625 23.9368 8.95369 23.385 8.94233 22.8108C8.94795 18.6602 8.93952 14.5089 8.94655 10.3589C8.93167 10.1746 9.12416 10.0224 9.32147 10.0398C9.84354 10.0366 10.3663 10.0334 10.8884 10.041C11.1063 10.0366 11.2563 10.235 11.2293 10.4206C11.2272 14.5975 11.235 18.7745 11.2258 22.9515C11.2272 24.0646 10.7235 25.2759 9.58953 25.8206C8.19249 26.4777 6.46576 26.3384 5.0856 25.7083C3.89078 25.1668 2.75056 24.5277 1.57695 23.9476C0.761385 23.5643 0.197485 22.7634 0.203226 21.9239V9.26763C0.194673 8.44422 0.730923 7.65092 1.52598 7.26231C5.61189 5.16858 9.69709 3.07326 13.7823 0.978583Z" fill="#8CC84B"/>
<path d="M17.3465 9.7456C19.1285 9.64145 21.0363 9.6839 22.6398 10.481C23.8814 11.0919 24.5697 12.3739 24.5916 13.6263C24.557 13.7953 24.3625 13.8885 24.1849 13.8769C23.6678 13.8762 23.1507 13.8833 22.6336 13.8737C22.4143 13.8813 22.2868 13.6977 22.2593 13.5217C22.1107 12.9224 21.7508 12.3289 21.1296 12.0399C20.1761 11.6063 19.0704 11.6282 18.0306 11.6372C17.2715 11.6738 16.4552 11.7335 15.8121 12.1388C15.3184 12.4458 15.1684 13.0656 15.3446 13.5647C15.5108 13.9232 15.9664 14.0388 16.3392 14.1454C18.4868 14.6554 20.7626 14.6046 22.8691 15.2758C23.7413 15.5494 24.5945 16.0813 24.893 16.9105C25.2835 18.0218 25.1123 19.3501 24.2416 20.2422C23.5354 20.9763 22.507 21.3759 21.4812 21.5929C20.1166 21.8692 18.7005 21.8762 17.3147 21.7536C16.0116 21.6187 14.6556 21.3078 13.6497 20.5017C12.7895 19.8235 12.3693 18.7668 12.411 17.7469C12.421 17.5746 12.6099 17.4545 12.7916 17.4687C13.3122 17.4649 13.8329 17.4636 14.3536 17.4693C14.5615 17.4558 14.7157 17.619 14.7264 17.797C14.8225 18.3679 15.0588 18.9672 15.6071 19.3057C16.6653 19.9256 17.9931 19.8832 19.2048 19.9005C20.2086 19.8601 21.3355 19.8478 22.1547 19.2454C22.5869 18.9018 22.7149 18.3269 22.5981 17.8323C22.4716 17.4147 21.9905 17.2202 21.5774 17.0929C19.4574 16.484 17.1562 16.705 15.0567 16.0163C14.2043 15.7428 13.3801 15.2257 13.0526 14.4306C12.5957 13.3053 12.805 11.9134 13.7671 11.0513C14.7051 10.1939 16.0591 9.86379 17.3465 9.7456Z" fill="#8CC84B"/>
</g>
<defs>
<clipPath id="clip0_211_587">
<rect width="30" height="30" fill="white" transform="translate(0.132812 0.597656)"/>
</clipPath>
</defs>
</svg>
