<svg width="31" height="31" viewBox="0 0 31 31" fill="none" xmlns="http://www.w3.org/2000/svg">
<g clip-path="url(#clip0_213_630)">
<path d="M27.0693 6.42953C25.2559 4.08132 22.7869 2.32361 19.9745 1.37871C17.162 0.433812 14.1326 0.344166 11.2692 1.12111C8.40587 1.89805 5.83719 3.50669 3.88812 5.74357C1.93904 7.98048 0.697098 10.7451 0.319351 13.6879C-0.0583948 16.6306 0.445028 19.6193 1.76595 22.276C3.08687 24.9326 5.16596 27.1378 7.74029 28.6127C10.3146 30.0877 13.2684 30.7661 16.2284 30.5622C19.1882 30.3583 22.0212 29.2811 24.3689 27.467C30.9219 22.4027 32.1318 12.985 27.0693 6.42953Z" fill="#FF6C37"/>
<path d="M20.2567 10.1552L13.9319 16.5302L12.1445 14.6927C18.3695 8.46767 18.9939 9.03017 20.2567 10.1552Z" fill="white"/>
<path d="M13.9311 16.7044C13.8751 16.7031 13.8216 16.6808 13.7811 16.6421L11.9811 14.8421C11.9406 14.8001 11.918 14.7441 11.918 14.6858C11.918 14.6275 11.9406 14.5714 11.9811 14.5294C18.1185 8.39209 18.9561 8.67949 20.406 9.99199C20.4302 10.0114 20.4497 10.0362 20.4627 10.0644C20.4757 10.0927 20.4819 10.1236 20.481 10.1546C20.4903 10.2155 20.4669 10.2779 20.4186 10.3172L14.0937 16.6426C14.0494 16.6832 13.9913 16.7051 13.9311 16.7044ZM12.456 14.6921L13.9311 16.1672L19.9311 10.1672C19.724 9.90763 19.4283 9.73351 19.1009 9.67819C18.7733 9.62281 18.4369 9.69013 18.156 9.86725C17.0685 10.3547 15.3186 11.8421 12.456 14.6921Z" fill="#FF6C37"/>
<path d="M15.7445 18.2925L14.0195 16.53L20.3444 10.2798C22.0445 11.9424 19.5194 14.7179 15.7445 18.2925Z" fill="white"/>
<path d="M15.7448 18.5176C15.6895 18.5132 15.637 18.4914 15.5948 18.4553L13.8323 16.7303C13.8059 16.6662 13.8059 16.5942 13.8323 16.5301C13.8136 16.4775 13.8136 16.4201 13.8323 16.3674L20.1572 10.0426C20.2012 10.0013 20.2593 9.97827 20.3196 9.97827C20.3799 9.97827 20.4381 10.0013 20.482 10.0426C20.6868 10.2311 20.8486 10.4616 20.9565 10.7182C21.0643 10.9749 21.1156 11.2517 21.1069 11.5299C21.1069 13.2174 19.1817 15.3423 15.907 18.4426C15.8632 18.4859 15.8062 18.5124 15.7448 18.5176ZM14.3447 16.5301L15.757 17.942C18.2569 15.5795 20.6447 13.142 20.6569 11.492C20.6704 11.1422 20.5548 10.7996 20.332 10.5296L14.3447 16.5301Z" fill="#FF6C37"/>
<path d="M12.1939 14.7302L13.4441 15.9803C13.4521 15.9873 13.4584 15.996 13.4628 16.0057C13.4672 16.0154 13.4695 16.0259 13.4695 16.0366C13.4695 16.0472 13.4672 16.0577 13.4628 16.0674C13.4584 16.0772 13.4521 16.0858 13.4441 16.0928L10.8064 16.6553C10.7532 16.6668 10.6977 16.6606 10.6483 16.6376C10.5989 16.6146 10.5584 16.5761 10.5329 16.528C10.5074 16.4798 10.4984 16.4247 10.5072 16.3709C10.5159 16.3172 10.542 16.2677 10.5814 16.2302L12.1189 14.7053C12.1189 14.7053 12.1691 14.7053 12.1939 14.7302Z" fill="white"/>
<path d="M10.7442 16.9052C10.6609 16.9041 10.5792 16.8817 10.507 16.8402C10.4348 16.7985 10.3745 16.7391 10.3317 16.6675C10.2837 16.5769 10.2662 16.4731 10.2821 16.3717C10.2978 16.2703 10.346 16.1767 10.4194 16.105L11.9442 14.5675C11.9993 14.5184 12.0704 14.4912 12.1442 14.4912C12.2179 14.4912 12.2891 14.5184 12.3441 14.5675L13.5942 15.8177C13.6683 15.888 13.6974 15.9944 13.6692 16.0929C13.6411 16.1913 13.5586 16.2696 13.4569 16.293L10.8192 16.8555L10.7442 16.9052ZM12.1444 15.0054L10.7321 16.4177L13.0697 15.9175L12.1444 15.0054Z" fill="#FF6C37"/>
<path d="M23.6192 6.64226C22.7145 5.76946 21.2932 5.7329 20.3445 6.55649C19.3957 7.38008 19.2335 8.79386 19.9723 9.81104C20.711 10.8282 22.1037 11.1132 23.1818 10.4673L21.4817 8.7671L23.6192 6.64226Z" fill="white"/>
<path d="M21.9325 11.0421C21.4127 11.0354 20.9064 10.876 20.4766 10.5836C20.0468 10.2911 19.7126 9.87877 19.5156 9.39775C19.3187 8.91709 19.2671 8.38921 19.367 7.87951C19.467 7.36981 19.7142 6.90061 20.0781 6.52992C20.5786 6.03865 21.2518 5.76343 21.9531 5.76343C22.6544 5.76343 23.3276 6.03865 23.8281 6.52992C23.8759 6.57023 23.9031 6.62977 23.9031 6.69259C23.903 6.72349 23.8963 6.75397 23.8833 6.78205C23.8703 6.81013 23.8515 6.83509 23.8281 6.85525L21.8031 8.76775L23.3406 10.2804C23.3655 10.3042 23.3842 10.3337 23.3951 10.3664C23.4059 10.3991 23.4086 10.4339 23.4029 10.4679C23.3992 10.5007 23.3884 10.5322 23.3711 10.5603C23.3539 10.5884 23.3306 10.6124 23.3031 10.6306C22.8901 10.8887 22.4152 11.0312 21.9283 11.0431L21.9325 11.0421ZM21.9325 6.19195C21.0419 6.19664 20.245 6.73243 19.9108 7.55131C19.5766 8.37025 19.7584 9.31291 20.3828 9.94195C20.6933 10.2543 21.091 10.4656 21.5237 10.5482C21.9563 10.6307 22.4039 10.5807 22.8076 10.4046L21.3325 8.92945C21.309 8.91073 21.2901 8.88691 21.2771 8.85985C21.2641 8.83279 21.2573 8.80315 21.2573 8.77315C21.2573 8.74309 21.2641 8.71345 21.2771 8.68639C21.2901 8.65933 21.309 8.63557 21.3325 8.61679L23.2825 6.65413C22.8949 6.35706 22.4209 6.19509 21.9325 6.19195Z" fill="#FF6C37"/>
<path d="M23.657 6.67993L21.5195 8.80477L23.2197 10.5049C23.3908 10.4067 23.5501 10.2892 23.6945 10.1548C24.1402 9.68377 24.3853 9.05809 24.3783 8.40973C24.3713 7.76143 24.1127 7.14115 23.657 6.67993Z" fill="white"/>
<path d="M23.1822 10.6923C23.1541 10.6939 23.126 10.6891 23.1001 10.6783C23.0741 10.6675 23.0509 10.651 23.0322 10.63L21.332 8.9298C21.3086 8.91108 21.2897 8.88732 21.2766 8.8602C21.2636 8.83314 21.2568 8.8035 21.2568 8.7735C21.2568 8.7435 21.2636 8.71386 21.2766 8.6868C21.2897 8.65974 21.3086 8.63592 21.332 8.6172L23.4569 6.52982C23.4774 6.49888 23.5052 6.4735 23.538 6.45595C23.5707 6.43838 23.6072 6.4292 23.6444 6.4292C23.6815 6.4292 23.718 6.43838 23.7507 6.45595C23.7835 6.4735 23.8113 6.49888 23.8319 6.52982C24.0813 6.77423 24.2795 7.06595 24.4148 7.38791C24.5501 7.70987 24.6197 8.0556 24.6197 8.4048C24.6197 8.75406 24.5501 9.09978 24.4148 9.42174C24.2795 9.7437 24.0813 10.0354 23.8319 10.2798C23.6847 10.4359 23.5163 10.5705 23.3317 10.6797C23.2852 10.7031 23.2319 10.7077 23.1822 10.6923ZM21.8073 8.76762L23.2197 10.18C23.3168 10.1119 23.4088 10.0367 23.4948 9.95496C23.91 9.54096 24.1439 8.979 24.145 8.39262C24.146 7.86792 23.9547 7.36098 23.6073 6.96762L21.8073 8.76762Z" fill="#FF6C37"/>
<path d="M20.5196 10.4177C20.3503 10.2587 20.1268 10.1702 19.8945 10.1702C19.6623 10.1702 19.4388 10.2587 19.2694 10.4177L13.6074 16.067L14.5449 17.0172L20.5323 11.7672C20.6236 11.6797 20.696 11.5744 20.7451 11.4578C20.7942 11.3413 20.8189 11.2159 20.8177 11.0895C20.8165 10.963 20.7895 10.8381 20.7382 10.7225C20.6869 10.6069 20.6125 10.5035 20.5196 10.4177Z" fill="white"/>
<path d="M14.4944 17.2426C14.4384 17.2412 14.3849 17.219 14.3444 17.1803L13.3942 16.2301C13.3537 16.1882 13.3311 16.1321 13.3311 16.0738C13.3311 16.0154 13.3537 15.9594 13.3942 15.9174L19.0567 10.2798C19.2199 10.1169 19.4281 10.0067 19.6546 9.96364C19.881 9.92056 20.1152 9.94648 20.3268 10.038C20.5383 10.1297 20.7174 10.2827 20.841 10.4774C20.9644 10.672 21.0266 10.8992 21.0194 11.1296C21.0129 11.286 20.9753 11.4395 20.9088 11.5812C20.8422 11.7228 20.748 11.8498 20.6317 11.9546L14.6444 17.2046C14.6009 17.2355 14.5474 17.2493 14.4944 17.2426ZM13.8321 16.067L14.4569 16.7045L20.3317 11.5918C20.4771 11.4653 20.5638 11.2843 20.5694 11.0916C20.575 10.899 20.4991 10.7106 20.3571 10.5793C20.2259 10.4487 20.0484 10.3754 19.8633 10.3754C19.6782 10.3754 19.5006 10.4487 19.3694 10.5793L13.8321 16.067Z" fill="#FF6C37"/>
<path d="M9.21946 22.5047C9.2035 22.5264 9.19486 22.5527 9.19486 22.5797C9.19486 22.6067 9.2035 22.633 9.21946 22.6547L9.4693 23.7422C9.47932 23.8062 9.46984 23.8718 9.44206 23.9303C9.41434 23.9888 9.36958 24.0376 9.31372 24.0704C9.25798 24.1029 9.19342 24.117 9.12922 24.1105C9.06502 24.104 9.00454 24.0773 8.95648 24.0342L7.24414 22.3842L12.5818 17.0044H14.432L15.6821 18.2546C13.732 19.9596 11.5576 21.3896 9.21946 22.5047Z" fill="white"/>
<path d="M9.10705 24.3423C8.96551 24.3395 8.82577 24.2814 8.73205 24.1797L7.09471 22.5423C7.07125 22.5236 7.05229 22.4998 7.03933 22.4727C7.02631 22.4456 7.01953 22.416 7.01953 22.386C7.01953 22.356 7.02631 22.3264 7.03933 22.2993C7.05229 22.2722 7.07125 22.2484 7.09471 22.2297L12.4694 16.8423C12.4995 16.8103 12.5388 16.7885 12.5819 16.78H14.4442C14.4928 16.7628 14.5457 16.7628 14.5942 16.78L15.8444 18.0301C15.8682 18.0521 15.8863 18.0794 15.8971 18.1099C15.908 18.1403 15.9113 18.173 15.9067 18.205C15.9076 18.236 15.9013 18.2669 15.8883 18.2951C15.8753 18.3233 15.8559 18.3481 15.8317 18.3676L15.7319 18.4553C13.7739 20.0876 11.6197 21.4691 9.31939 22.5676L9.55705 23.5801C9.57541 23.6582 9.57613 23.7395 9.55909 23.8179C9.54211 23.8963 9.50779 23.9699 9.45871 24.0334C9.40957 24.0968 9.34693 24.1486 9.27535 24.1847C9.20371 24.2209 9.12493 24.2407 9.04471 24.2425L9.10705 24.3423ZM7.58221 22.3797L9.05689 23.867C9.07063 23.8793 9.08839 23.8861 9.10681 23.8861C9.12523 23.8861 9.14299 23.8793 9.15673 23.867C9.16591 23.8543 9.17089 23.8389 9.17089 23.8232C9.17089 23.8075 9.16591 23.7921 9.15673 23.7794L8.90689 22.6919C8.88721 22.6138 8.89513 22.5314 8.92927 22.4585C8.96347 22.3856 9.02179 22.3268 9.09439 22.292C11.3329 21.2081 13.4315 19.8565 15.3442 18.2669L14.3191 17.2417H12.6442L7.58221 22.3797Z" fill="#FF6C37"/>
<path d="M5.95664 23.6674L7.20679 22.4172L9.13195 24.3424L6.06961 24.1301C6.01704 24.126 5.9671 24.1053 5.92694 24.0711C5.88678 24.0369 5.85844 23.991 5.84597 23.9397C5.8335 23.8885 5.83753 23.8346 5.85748 23.7858C5.87745 23.737 5.91231 23.6957 5.95711 23.6679L5.95664 23.6674Z" fill="white"/>
<path d="M9.16917 24.5299L6.11899 24.3176C5.93806 24.3007 5.78243 24.177 5.71868 24.0115C5.65493 23.8461 5.69383 23.6496 5.81899 23.5174L7.06917 22.2673C7.11111 22.2268 7.16715 22.2041 7.22547 22.2041C7.28379 22.2041 7.33983 22.2268 7.38183 22.2673L9.29433 24.1798C9.32079 24.2161 9.33507 24.2598 9.33507 24.3047C9.33507 24.3496 9.32079 24.3934 9.29433 24.4296C9.26541 24.4764 9.22113 24.5121 9.16917 24.5299ZM6.11899 23.8301L8.61885 23.9928L7.24401 22.7051L6.11899 23.8301Z" fill="#FF6C37"/>
<path d="M14.6062 17.1555L12.0811 17.5432L13.5436 16.0933L14.6062 17.1555Z" fill="white"/>
<path d="M12.082 17.7797C12.04 17.7808 11.9986 17.7695 11.963 17.7473C11.9274 17.7251 11.8991 17.6928 11.8818 17.6546C11.8552 17.6184 11.8408 17.5746 11.8408 17.5297C11.8408 17.4847 11.8552 17.441 11.8818 17.4047L13.3316 15.9422C13.3756 15.9009 13.4337 15.8779 13.4941 15.8779C13.5544 15.8779 13.6125 15.9009 13.6565 15.9422L14.7196 17.0044C14.7408 17.0381 14.7521 17.0771 14.7521 17.1169C14.7521 17.1568 14.7408 17.1958 14.7196 17.2294C14.7092 17.2705 14.6871 17.3077 14.6561 17.3365C14.6251 17.3654 14.5864 17.3846 14.5447 17.3921L12.0449 17.7797H12.082ZM13.5444 16.4171L12.7321 17.2294L14.1322 17.0171L13.5444 16.4171Z" fill="#FF6C37"/>
<path d="M14.6066 17.1545L12.8441 17.3795C12.797 17.3902 12.7476 17.3854 12.7034 17.3658C12.6592 17.3463 12.6224 17.313 12.5986 17.2709C12.5747 17.2289 12.5651 17.1802 12.5711 17.1322C12.5771 17.0842 12.5984 17.0394 12.6318 17.0045L13.5445 16.0918L14.6066 17.1545Z" fill="white"/>
<path d="M12.7938 17.6176C12.7121 17.6169 12.6321 17.5945 12.5618 17.5527C12.4916 17.511 12.4336 17.4514 12.3939 17.38C12.3462 17.2944 12.3277 17.1957 12.3412 17.0986C12.3548 17.0016 12.3996 16.9116 12.4689 16.8424L13.3816 15.9297C13.4256 15.8884 13.4836 15.8653 13.544 15.8653C13.6044 15.8653 13.6624 15.8884 13.7064 15.9297L14.7691 16.9924C14.8007 17.0223 14.823 17.0608 14.8331 17.1031C14.8433 17.1454 14.841 17.1898 14.8264 17.2308C14.8119 17.2719 14.7858 17.3078 14.7512 17.3343C14.7166 17.3608 14.6752 17.3766 14.6317 17.38L12.8819 17.605L12.7938 17.6176ZM12.7938 17.155L14.1189 16.9924L13.5316 16.405L12.7816 17.155H12.7938ZM23.6688 8.11755C23.6452 8.07807 23.608 8.04867 23.5642 8.03481C23.5204 8.02101 23.473 8.02371 23.4311 8.04255C23.4105 8.05299 23.392 8.06751 23.3771 8.08527C23.3621 8.10297 23.3508 8.12349 23.3439 8.14563C23.33 8.19033 23.3344 8.23869 23.3561 8.28015C23.4438 8.46441 23.4194 8.68239 23.2938 8.84265C23.2782 8.85813 23.266 8.87661 23.2579 8.89707C23.2498 8.91747 23.2461 8.93931 23.2469 8.96127C23.2474 9.00525 23.2641 9.04749 23.2938 9.07989C23.3259 9.09255 23.3616 9.09255 23.3936 9.07989C23.4228 9.08721 23.4533 9.08637 23.482 9.07755C23.5107 9.06867 23.5363 9.05217 23.5563 9.02973C23.6592 8.90367 23.7244 8.75109 23.7443 8.58963C23.7642 8.42811 23.738 8.26479 23.6688 8.11755Z" fill="#FF6C37"/>
</g>
<defs>
<clipPath id="clip0_213_630">
<rect width="30" height="30" fill="white" transform="translate(0.197266 0.597656)"/>
</clipPath>
</defs>
</svg>
