<svg width="30" height="31" viewBox="0 0 30 31" fill="none" xmlns="http://www.w3.org/2000/svg">
<g clip-path="url(#clip0_213_625)">
<path d="M29.0636 18.5603C28.8892 18.032 28.4323 17.6641 27.8414 17.5758C27.5628 17.5342 27.2438 17.552 26.8662 17.6298C26.2081 17.7656 25.7198 17.8173 25.3635 17.8273C26.7085 15.5565 27.8021 12.967 28.4317 10.5294C29.4498 6.58783 28.9058 4.79221 28.27 3.98002C26.5876 1.83024 24.1329 0.675353 21.1716 0.640016C19.5919 0.620699 18.2051 0.9326 17.4817 1.1569C16.8081 1.03804 16.0839 0.971687 15.3239 0.959416C13.8994 0.936691 12.6408 1.24723 11.5653 1.88546C10.9699 1.68412 10.0143 1.40028 8.91082 1.21916C6.3154 0.793069 4.22356 1.12508 2.69349 2.206C0.84072 3.51473 -0.0181715 5.78859 0.140676 8.96441C0.191126 9.97272 0.75516 13.0406 1.64325 15.9501C2.15366 17.6224 2.69792 19.0111 3.26093 20.0781C4.05938 21.591 4.91372 22.4819 5.87283 22.8019C6.41039 22.981 7.38711 23.1064 8.41439 22.2508C8.54461 22.4085 8.71834 22.5652 8.94889 22.7108C9.2417 22.8954 9.59973 23.0463 9.95731 23.1357C11.2459 23.4578 12.453 23.3773 13.4828 22.9257C13.4891 23.1089 13.494 23.2839 13.4981 23.435C13.5049 23.6801 13.5117 23.9204 13.5207 24.1452C13.5817 25.6648 13.6851 26.8464 13.9915 27.6731C14.0083 27.7186 14.0309 27.7879 14.0547 27.8614C14.2076 28.3293 14.4631 29.1126 15.1133 29.7261C15.7865 30.3616 16.6008 30.5565 17.3467 30.5565C17.7207 30.5565 18.0776 30.5074 18.3907 30.4403C19.5065 30.2012 20.7737 29.8369 21.6905 28.5315C22.5572 27.2976 22.9785 25.439 23.0547 22.5106C23.0646 22.4277 23.0737 22.3486 23.0825 22.2733L23.1007 22.1185L23.3048 22.1365L23.3574 22.14C24.4939 22.1918 25.8836 21.9508 26.737 21.5544C27.4114 21.2415 29.5724 20.1006 29.0636 18.5603Z" fill="black"/>
<path d="M27.1195 18.8596C23.7403 19.5567 23.5079 18.4126 23.5079 18.4126C27.0758 13.1185 28.5673 6.39836 27.2803 4.75364C23.7688 0.267156 17.6905 2.38899 17.589 2.44398L17.5564 2.44989C16.8887 2.31127 16.1416 2.22878 15.3018 2.21503C13.7729 2.19003 12.613 2.6159 11.7329 3.28333C11.7329 3.28333 0.889638 -1.18372 1.39402 8.90141C1.50128 11.0469 4.46917 25.1354 8.00904 20.88C9.30289 19.3239 10.5531 18.0082 10.5531 18.0082C11.174 18.4207 11.9173 18.6311 12.6965 18.5556L12.7571 18.5042C12.7382 18.6974 12.7469 18.8863 12.7813 19.11C11.8693 20.1289 12.1374 20.3078 10.3144 20.6831C8.46967 21.0633 9.55332 21.74 10.2609 21.917C11.1186 22.1314 13.103 22.4353 14.4437 20.5583L14.3903 20.7725C14.7476 21.0587 14.9985 22.634 14.9564 24.0622C14.9144 25.4902 14.8863 26.4707 15.1678 27.2365C15.4494 28.0023 15.73 29.7255 18.1265 29.212C20.129 28.7828 21.1667 27.6708 21.3111 25.8157C21.4135 24.497 21.6454 24.692 21.6599 23.5129L21.8459 22.9548C22.0604 21.1671 21.88 20.5904 23.1137 20.8586L23.4136 20.885C24.3215 20.9262 25.51 20.7389 26.2076 20.4147C27.7095 19.7177 28.6003 18.5539 27.1193 18.8596H27.1195Z" fill="#336791"/>
<path d="M12.3685 9.86097C12.064 9.81859 11.7882 9.85779 11.6487 9.96346C11.5703 10.0229 11.546 10.0917 11.5394 10.1391C11.5219 10.2647 11.6098 10.4035 11.6639 10.4751C11.8168 10.6778 12.0402 10.8171 12.2613 10.8478C12.2934 10.8523 12.3253 10.8544 12.357 10.8544C12.7257 10.8544 13.061 10.5673 13.0906 10.3554C13.1275 10.0899 12.7422 9.9129 12.3685 9.86097ZM22.4566 9.86938C22.4275 9.66133 22.0573 9.60202 21.706 9.65088C21.3551 9.69974 21.0149 9.85813 21.0433 10.0666C21.066 10.2288 21.3588 10.5056 21.7054 10.5056C21.7347 10.5056 21.7643 10.5036 21.794 10.4994C22.0254 10.4674 22.1951 10.3205 22.2758 10.2358C22.3985 10.1067 22.4696 9.96289 22.4566 9.86938Z" fill="white"/>
<path d="M28.2442 18.7806C28.1154 18.3909 27.7006 18.2656 27.0116 18.4079C24.9658 18.8301 24.2331 18.5376 23.9926 18.3605C25.5828 15.938 26.8909 13.0097 27.5967 10.2776C27.9309 8.98336 28.1156 7.78144 28.1307 6.80176C28.1474 5.72653 27.9642 4.93638 27.5865 4.4537C26.0637 2.50787 23.8287 1.46412 21.1233 1.43548C19.2634 1.41458 17.692 1.89055 17.3873 2.0244C16.7458 1.86487 16.0464 1.76693 15.285 1.75443C13.8888 1.73182 12.6819 2.0661 11.6827 2.74751C11.2486 2.58594 10.1269 2.20086 8.75513 1.97986C6.38355 1.59808 4.49897 1.88737 3.1541 2.84011C1.54937 3.97705 0.808539 6.00934 0.952047 8.88042C1.00034 9.84634 1.55074 12.8179 2.41929 15.6636C3.56258 19.4091 4.80541 21.5295 6.11301 21.9657C6.26606 22.0167 6.44252 22.0524 6.63716 22.0524C7.11416 22.0524 7.69899 21.8374 8.30745 21.1059C9.0496 20.2156 9.8173 19.3469 10.6096 18.5009C11.1236 18.7768 11.6884 18.9309 12.2659 18.9463C12.2671 18.9615 12.2685 18.9766 12.2699 18.9916C12.1705 19.1101 12.0731 19.2304 11.9779 19.3523C11.5777 19.8603 11.4944 19.9661 10.2062 20.2313C9.8398 20.307 8.8666 20.5075 8.85228 21.1898C8.83683 21.9351 10.0027 22.2482 10.1356 22.2814C10.5985 22.3972 11.0444 22.4544 11.4697 22.4544C12.5041 22.4544 13.4143 22.1144 14.1418 21.4567C14.1194 24.1139 14.2302 26.7323 14.5492 27.53C14.8105 28.1831 15.4489 29.7792 17.4653 29.7791C17.7612 29.7791 18.0868 29.7447 18.4451 29.6679C20.5495 29.2168 21.4634 28.2867 21.8169 26.2361C22.0061 25.1402 22.3307 22.5233 22.4834 21.1195C22.8057 21.2201 23.2205 21.2661 23.669 21.266C24.6043 21.266 25.6837 21.0673 26.3605 20.7531C27.1209 20.3999 28.493 19.5334 28.2442 18.7806ZM23.2327 9.29515C23.2257 9.70954 23.1687 10.0858 23.1082 10.4784C23.0431 10.9008 22.9759 11.3374 22.9589 11.8675C22.9422 12.3834 23.0067 12.9197 23.0689 13.4384C23.1948 14.486 23.324 15.5645 22.824 16.6287C22.7409 16.4815 22.6669 16.3294 22.6024 16.1732C22.5402 16.0225 22.4052 15.7805 22.2183 15.4456C21.4912 14.1416 19.7886 11.088 20.6602 9.84203C20.9198 9.47116 21.5787 9.08983 23.2327 9.29515ZM21.2279 2.2746C23.6519 2.32812 25.5695 3.23496 26.9271 4.96979C27.9683 6.30045 26.8217 12.3552 23.5024 17.5786C23.469 17.5362 23.4355 17.4939 23.4017 17.4517L23.3597 17.3992C24.2174 15.9827 24.0497 14.5811 23.9004 13.3385C23.8391 12.8285 23.7811 12.3469 23.7959 11.8944C23.8111 11.4149 23.8745 11.0036 23.9359 10.6059C24.0112 10.1159 24.0879 9.60875 24.0668 9.01097C24.0826 8.94825 24.0889 8.87417 24.0806 8.78622C24.0267 8.21299 23.3722 6.49736 22.0382 4.94456C21.3085 4.09522 20.2444 3.14474 18.7915 2.50367C19.4165 2.37414 20.271 2.25335 21.2279 2.2746ZM7.66354 20.5705C6.99315 21.3766 6.53024 21.222 6.37798 21.1713C5.38604 20.8405 4.23501 18.7439 3.22023 15.4192C2.34214 12.5424 1.82901 9.64966 1.78833 8.83849C1.66016 6.27307 2.28203 4.48518 3.63678 3.52436C5.84156 1.96088 9.46642 2.8967 10.923 3.37131C10.9021 3.39199 10.8803 3.41131 10.8596 3.43233C8.46936 5.84618 8.52606 9.97031 8.53197 10.2224C8.53174 10.3197 8.53993 10.4574 8.55106 10.6468C8.59219 11.3405 8.66878 12.6315 8.46425 14.0935C8.27427 15.4521 8.69309 16.7819 9.61311 17.7419C9.70753 17.8403 9.80677 17.9338 9.91047 18.0223C9.50097 18.4609 8.61094 19.4308 7.66354 20.5705ZM10.2177 17.1625C9.4762 16.3888 9.13941 15.3125 9.2936 14.2094C9.50949 12.665 9.42984 11.3199 9.387 10.5973C9.38098 10.4962 9.37564 10.4075 9.37257 10.3377C9.72174 10.028 11.3399 9.16107 12.4938 9.42548C13.0204 9.54603 13.3413 9.90463 13.4747 10.5214C14.165 13.7146 13.566 15.0455 13.0847 16.115C12.9855 16.3354 12.8918 16.5436 12.8118 16.7591L12.7497 16.9256C12.5927 17.3467 12.4466 17.7383 12.356 18.1101C11.5677 18.1078 10.8008 17.771 10.2177 17.1624V17.1625ZM10.3387 21.4689C10.1085 21.4114 9.90149 21.3116 9.78003 21.2287C9.8815 21.181 10.062 21.116 10.3752 21.0515C11.8906 20.7396 12.1247 20.5194 12.6358 19.8705C12.7529 19.7216 12.8857 19.553 13.0697 19.3476L13.0699 19.3473C13.3439 19.0405 13.4692 19.0926 13.6965 19.1869C13.8806 19.263 14.0601 19.4939 14.1328 19.748C14.1672 19.868 14.2058 20.0957 14.0794 20.2729C13.0118 21.7678 11.456 21.7486 10.3387 21.4689ZM18.2696 28.8491C16.4157 29.2463 15.7593 28.3004 15.3267 27.219C15.0476 26.5209 14.9103 23.3728 15.0077 19.8962C15.0089 19.85 15.0023 19.8053 14.9896 19.7633C14.9782 19.6803 14.9609 19.5982 14.9378 19.5176C14.793 19.0118 14.4402 18.5887 14.017 18.4132C13.8488 18.3436 13.5402 18.2157 13.1693 18.3106C13.2484 17.9847 13.3856 17.6167 13.5343 17.2182L13.5967 17.0506C13.6669 16.8617 13.7551 16.6659 13.8483 16.4586C14.352 15.3397 15.0418 13.807 14.2931 10.3445C14.0127 9.04756 13.0762 8.41422 11.6565 8.56136C10.8055 8.64942 10.0268 8.99279 9.63845 9.18971C9.55494 9.23197 9.47858 9.27288 9.40722 9.31265C9.51562 8.00596 9.92513 5.56393 11.457 4.01886C12.4216 3.04623 13.7061 2.56582 15.2712 2.59173C18.355 2.64218 20.3325 4.22475 21.4485 5.54359C22.4102 6.67996 22.931 7.82473 23.1388 8.44217C21.5759 8.28321 20.5129 8.5917 19.9741 9.36207C18.8019 11.0378 20.6154 14.2902 21.487 15.8534C21.6469 16.1398 21.7849 16.3874 21.8283 16.4926C22.1121 17.1805 22.4796 17.6398 22.7478 17.975C22.8301 18.0777 22.9099 18.1773 22.9705 18.2644C22.4972 18.4008 21.6469 18.7161 21.7244 20.2922C21.6619 21.0831 21.2175 24.7856 20.9917 26.0938C20.6937 27.822 20.0578 28.4657 18.2696 28.8492V28.8491ZM26.008 19.9936C25.5239 20.2183 24.7139 20.3868 23.9444 20.423C23.0945 20.4628 22.6618 20.3278 22.56 20.2447C22.5123 19.2626 22.8778 19.16 23.2647 19.0513C23.3255 19.0343 23.3848 19.0176 23.4421 18.9976C23.4776 19.0266 23.5166 19.0553 23.5593 19.0835C24.2424 19.5344 25.4608 19.583 27.181 19.2279L27.1999 19.2242C26.9679 19.4411 26.5709 19.7322 26.008 19.9936Z" fill="white"/>
</g>
<defs>
<clipPath id="clip0_213_625">
<rect width="29.088" height="30" fill="white" transform="translate(0.0878906 0.597656)"/>
</clipPath>
</defs>
</svg>
