<svg width="36" height="38" viewBox="0 0 36 38" fill="none" xmlns="http://www.w3.org/2000/svg">
<g clip-path="url(#clip0_211_583)">
<path d="M5.46358 14.0929C4.86706 15.7318 6.35419 18.032 9.15035 20.1405C7.25684 23.0835 6.65085 25.7526 7.77559 27.0872C8.03363 27.3981 8.38384 27.6284 8.8024 27.7807L9.21171 26.6562C8.97974 26.5717 8.80967 26.4584 8.68454 26.3158C8.14188 25.6728 8.38948 24.0668 9.32259 22.2249C9.55059 21.771 9.82308 21.3048 10.1194 20.8359C11.0197 21.4377 12.031 22.0171 13.1215 22.5511C13.4628 23.7318 13.8604 24.8359 14.3016 25.836C12.1015 26.7657 10.2537 27.0411 9.20483 26.6594L8.79552 27.7839C10.1823 28.2887 12.3575 27.961 14.8171 26.9146C16.0323 29.2871 17.4917 30.9262 18.8785 31.431L19.2878 30.3064C18.2439 29.9265 16.9986 28.5309 15.9071 26.4147C16.8829 25.9303 17.8954 25.3451 18.9057 24.6563C20.0894 24.9501 21.2365 25.1563 22.3148 25.269C22.2473 25.8155 22.155 26.3358 22.0448 26.8268C21.5807 28.8395 20.7431 30.2307 19.9173 30.3813C19.7329 30.417 19.5216 30.3858 19.2896 30.3014L18.8803 31.4259C19.3039 31.5801 19.7202 31.6288 20.1228 31.5583C21.8372 31.2572 23.0818 28.8262 23.5142 25.3628C27.0033 25.5363 29.6091 24.7315 30.2038 23.0976C30.8003 21.4587 29.3132 19.1584 26.517 17.0499C28.4106 14.107 29.0166 11.4378 27.8918 10.1033C27.6338 9.79236 27.2836 9.56209 26.86 9.40791C25.4732 8.90316 23.298 9.2308 20.8383 10.2773C19.6231 7.90468 18.1638 6.26561 16.777 5.76086C16.3534 5.60668 15.9371 5.55796 15.5345 5.62845C13.8201 5.92963 12.5755 8.36064 12.1431 11.8239C8.66594 11.6492 6.05827 12.459 5.46358 14.0929ZM10.8051 19.8462C11.2285 19.2636 11.7046 18.6773 12.2109 18.1021C12.2708 18.5808 12.3408 19.0631 12.431 19.5528C12.5162 20.0407 12.6201 20.5239 12.7277 20.9971C12.0502 20.6306 11.407 20.248 10.8051 19.8462ZM15.0695 15.3162C15.7106 14.7786 16.349 14.2799 16.986 13.8322C17.7612 14.0401 18.5355 14.282 19.3021 14.5609C20.0635 14.8381 20.8121 15.1506 21.5365 15.4827C21.7366 16.2352 21.912 17.0243 22.0594 17.8432C22.2022 18.6433 22.306 19.4406 22.3778 20.232C21.8192 20.7939 21.2202 21.3412 20.6016 21.8642C19.9604 22.4018 19.3221 22.9004 18.6851 23.3482C17.9098 23.1403 17.1355 22.8984 16.369 22.6194C15.6075 22.3423 14.8589 22.0298 14.1346 21.6977C13.9345 20.9452 13.7591 20.1561 13.6117 19.3372C13.4689 18.5371 13.365 17.7397 13.2933 16.9484C13.8569 16.3883 14.4509 15.8392 15.0695 15.3162ZM13.2021 15.3789C13.1757 14.6041 13.1897 13.8439 13.2367 13.1186C13.956 13.1977 14.7015 13.3148 15.4611 13.4714C15.0727 13.7697 14.6806 14.0782 14.3 14.4022C13.9212 14.7212 13.5557 15.0508 13.2021 15.3789ZM20.2739 11.8594C20.5667 12.5142 20.8393 13.2244 21.0885 13.9833C20.642 13.798 20.1836 13.614 19.7146 13.4433C19.2405 13.2707 18.7679 13.1101 18.2998 12.9683C18.9684 12.5435 19.6338 12.1746 20.2739 11.8594ZM22.9447 16.1952C23.6223 16.5617 24.2654 16.9443 24.8673 17.3461C24.4439 17.9287 23.9679 18.515 23.4615 19.0902C23.4016 18.6115 23.3316 18.1292 23.2414 17.6395C23.1512 17.1498 23.0523 16.6684 22.9447 16.1952ZM15.3985 25.3329C15.1057 24.6781 14.8331 23.9678 14.5839 23.209C15.0304 23.3943 15.4889 23.5783 15.9579 23.749C16.4319 23.9216 16.9046 24.0822 17.3726 24.224C16.704 24.6488 16.0386 25.0177 15.3985 25.3329ZM20.2113 23.7209C20.5997 23.4226 20.9918 23.1141 21.3725 22.7901C21.7513 22.4711 22.115 22.1466 22.4685 21.8184C22.4949 22.5933 22.4809 23.3534 22.4339 24.0788C21.7164 23.9946 20.971 23.8775 20.2113 23.7209ZM27.0731 19.0684C28.5811 20.4796 29.3725 21.8984 29.0843 22.6901C28.7961 23.4818 27.2761 24.0651 25.2156 24.1717C24.714 24.2005 24.1794 24.1943 23.6333 24.1726C23.7056 23.0796 23.7019 21.9132 23.6165 20.6886C24.4622 19.8085 25.208 18.9206 25.8483 18.0401C26.2906 18.3781 26.7022 18.7221 27.0731 19.0684ZM26.9829 10.8747C27.5255 11.5176 27.2779 13.1236 26.3448 14.9656C26.1168 15.4194 25.8443 15.8856 25.548 16.3546C24.6477 15.7528 23.6364 15.1734 22.5459 14.6394C22.2046 13.4587 21.807 12.3545 21.3657 11.3544C23.5659 10.4248 25.4137 10.1493 26.4626 10.5311C26.6877 10.6187 26.8628 10.7339 26.9829 10.8747ZM13.6226 10.3636C14.0867 8.351 14.9243 6.95973 15.7501 6.80913C15.9344 6.77342 16.1458 6.80466 16.3778 6.88909C17.4216 7.26903 18.6669 8.66458 19.7584 10.7808C18.7826 11.2652 17.7701 11.8504 16.7599 12.5392C15.5761 12.2454 14.429 12.0392 13.3507 11.9265C13.4201 11.375 13.5074 10.8528 13.6226 10.3636ZM10.4569 13.0206C10.9585 12.9918 11.4931 12.9979 12.0391 13.0197C11.9668 14.1127 11.9706 15.2791 12.056 16.5037C11.2102 17.3838 10.4645 18.2717 9.82417 19.1522C9.38182 18.8142 8.9702 18.4702 8.59434 18.1221C7.08633 16.7109 6.29493 15.2921 6.5831 14.5003C6.87631 13.7105 8.39637 13.1272 10.4569 13.0206Z" fill="#61DAFB"/>
<path d="M18.6777 16.2925C17.4049 15.8293 15.9976 16.4855 15.5343 17.7583C15.0711 19.0311 15.7273 20.4384 17.0001 20.9017C18.2729 21.3649 19.6802 20.7087 20.1435 19.4359C20.6067 18.1631 19.9505 16.7558 18.6777 16.2925Z" fill="#61DAFB"/>
</g>
<defs>
<clipPath id="clip0_211_583">
<rect width="26.328" height="30" fill="white" transform="translate(25.0723 37.1956) rotate(-160)"/>
</clipPath>
</defs>
</svg>
