<svg width="33" height="31" viewBox="0 0 33 31" fill="none" xmlns="http://www.w3.org/2000/svg">
<g clip-path="url(#clip0_213_652)">
<path d="M22.2288 21.5494C23.395 21.4287 24.2797 20.4234 24.2394 19.2169C24.1993 18.0106 23.1939 17.0453 21.9875 17.0453H21.9071C20.6604 17.0856 19.6954 18.1312 19.7356 19.3777C19.7758 19.981 20.017 20.5037 20.3789 20.8657C19.0117 23.5601 16.9207 25.5306 13.7841 27.1794C11.6528 28.3054 9.44113 28.7075 7.22947 28.4261C5.41982 28.1848 4.01237 27.3806 3.12755 26.0534C1.84082 24.0829 1.72022 21.9515 2.80599 19.8202C3.57008 18.292 4.77634 17.1659 5.54043 16.603C5.37958 16.0802 5.13826 15.1955 5.01766 14.5521C-0.813251 18.7746 -0.210005 24.485 1.55938 27.1794C2.88635 29.1902 5.58067 30.4368 8.55643 30.4368C9.36061 30.4368 10.1648 30.3563 10.9691 30.1554C16.1165 29.15 20.0171 26.0936 22.2288 21.5494ZM29.3063 16.5628C26.2501 12.9837 21.7463 11.0132 16.599 11.0132H15.9556C15.5937 10.2894 14.8296 9.80676 13.9852 9.80676H13.9047C12.6582 9.84696 11.6932 10.8925 11.7332 12.1393C11.7735 13.3456 12.7788 14.3108 13.9852 14.3108H14.0655C14.9502 14.2706 15.7143 13.7075 16.036 12.9434H16.7599C19.8161 12.9434 22.7113 13.8281 25.3253 15.5574C27.3359 16.8845 28.7836 18.6138 29.5878 20.7049C30.2714 22.3939 30.2312 24.0427 29.5073 25.4503C28.3814 27.5815 26.4914 28.7478 23.9982 28.7478C22.3897 28.7478 20.8616 28.2652 20.0573 27.9032C19.615 28.3054 18.8107 28.9487 18.2477 29.351C19.9769 30.1553 21.7463 30.5977 23.4352 30.5977C27.2956 30.5977 30.1508 28.4662 31.2366 26.3349C32.4027 24.0024 32.3222 19.981 29.3063 16.5628ZM8.87809 22.2329C8.91835 23.4394 9.92365 24.4045 11.13 24.4045H11.2105C12.4571 24.3643 13.4222 23.3187 13.3819 22.0721C13.3418 20.8655 12.3364 19.9005 11.13 19.9005H11.0497C10.9691 19.9005 10.8484 19.9005 10.7682 19.9406C9.11941 17.2061 8.43583 14.2303 8.67715 11.0131C8.83789 8.60022 9.64219 6.50905 11.0497 4.77979C12.2158 3.29185 14.4677 2.568 15.9959 2.52788C20.2583 2.4474 22.0679 7.75566 22.1886 9.8871C22.7113 10.0077 23.596 10.2893 24.1993 10.4903C23.7166 3.9757 19.6954 0.597656 15.835 0.597656C12.2158 0.597656 8.87809 3.21161 7.55101 7.0722C5.70127 12.2196 6.90763 17.1659 9.15955 21.0668C8.95861 21.3482 8.83789 21.7905 8.87809 22.2329Z" fill="#764ABC"/>
</g>
<defs>
<clipPath id="clip0_213_652">
<rect width="31.8" height="30" fill="white" transform="translate(0.333008 0.597656)"/>
</clipPath>
</defs>
</svg>
