<svg class="h-auto w-[100px]" xmlns="http://www.w3.org/2000/svg" width="100" height="21"
    viewBox="0 0 100 21" fill="none">
    <path
        d="M34.5741 3.38068C37.7677 3.38068 39.8439 5.33244 39.8439 8.4672C39.8439 10.7623 38.623 12.4677 36.7089 13.1955L40.4613 20.1292H37.678L34.1774 13.55H30.3113V20.1292H27.9143V3.38068H34.5741ZM30.3078 5.71309V11.2437H34.4602C36.364 11.2437 37.3469 10.0943 37.3469 8.4672C37.3469 6.80279 36.3675 5.71309 34.4602 5.71309H30.3078Z"
        fill="currentColor"></path>
    <path
        d="M46.5589 8.0343C49.7525 8.0343 51.8287 10.6018 51.8287 13.7739C51.8287 14.1433 51.8046 14.5277 51.739 14.9084H43.2411C43.3445 16.6847 44.7482 18.0804 46.6416 18.0804C48.0108 18.0804 49.1041 17.4498 49.9249 16.0578L51.5907 17.3677C50.5768 19.3418 48.5799 20.3793 46.6416 20.3793C43.3342 20.3793 40.9027 17.7371 40.9027 14.2217C40.9027 10.6876 43.241 8.0343 46.5589 8.0343ZM49.5352 13.0798C49.3973 11.4154 48.1108 10.2398 46.5347 10.2398C44.8586 10.2398 43.579 11.4116 43.2962 13.0798H49.5352Z"
        fill="currentColor"></path>
    <path
        d="M53.9256 20.1292V8.2806H56.195V9.77335C56.5605 9.16879 57.5987 8.0343 59.5611 8.0343C62.5719 8.0343 64.1584 10.057 64.1584 12.9342V20.1292H61.8994V13.453C61.8994 11.49 60.9061 10.3555 59.2058 10.3555C57.54 10.3555 56.1846 11.49 56.1846 13.453V20.1292H53.9256Z"
        fill="currentColor"></path>
    <path
        d="M71.5183 8.0343C73.3772 8.0343 74.6084 8.77321 75.4189 9.8965V2.75H77.6779V20.1292H75.4189V18.5133C74.6084 19.6366 73.3772 20.3755 71.5183 20.3755C68.4039 20.3755 66.0208 17.7819 66.0208 14.1433C66.0208 10.5011 68.4039 8.0343 71.5183 8.0343ZM68.2763 14.1433C68.2763 16.3265 69.68 18.1775 71.7907 18.1775C73.9014 18.1775 75.4051 16.3265 75.4051 14.1433C75.4051 11.9602 73.8876 10.2324 71.7907 10.2324C69.68 10.2286 68.2763 11.9565 68.2763 14.1433Z"
        fill="currentColor"></path>
    <path
        d="M85.2482 8.0343C88.4418 8.0343 90.518 10.6018 90.518 13.7739C90.518 14.1433 90.4939 14.5277 90.4284 14.9084H81.9304C82.0338 16.6847 83.4375 18.0804 85.331 18.0804C86.7001 18.0804 87.7934 17.4498 88.6143 16.0578L90.2801 17.3677C89.2661 19.3418 87.2692 20.3793 85.331 20.3793C82.0235 20.3793 79.5921 17.7371 79.5921 14.2217C79.5886 10.6876 81.9269 8.0343 85.2482 8.0343ZM88.2246 13.0798C88.0866 11.4154 86.8002 10.2398 85.224 10.2398C83.5479 10.2398 82.2684 11.4116 81.9856 13.0798H88.2246Z"
        fill="currentColor"></path>
    <path
        d="M92.7012 20.1292V8.2806H94.9705V9.8965C95.5879 8.60154 96.626 8.0343 97.8227 8.0343C98.678 8.0343 99.3299 8.32912 99.3299 8.32912L99.0919 10.5757C98.9677 10.5272 98.4746 10.3033 97.7572 10.3033C96.5466 10.3033 94.974 10.9937 94.974 13.6731V20.1292H92.7012Z"
        fill="currentColor"></path>
    <path
        d="M14.1714 0.00568544C11.7434 -0.117466 9.70165 1.77458 9.35331 4.26746C9.33952 4.38315 9.31882 4.4951 9.30158 4.60706C8.76011 7.71196 6.23899 10.063 3.21089 10.063C2.1314 10.063 1.11743 9.76448 0.234523 9.24202C0.127608 9.17858 0 9.26068 0 9.39129V10.0593V20.1241H9.29813V12.5783C9.29813 11.19 10.3397 10.063 11.6227 10.063H13.9472C16.5787 10.063 18.6963 7.70077 18.5928 4.82724C18.4997 2.24107 16.5614 0.128837 14.1714 0.00568544Z"
        fill="currentColor"></path>
</svg>