<svg width="41" height="31" viewBox="0 0 41 31" fill="none" xmlns="http://www.w3.org/2000/svg">
<mask id="mask0_213_659" style="mask-type:luminance" maskUnits="userSpaceOnUse" x="0" y="0" width="41" height="31">
<path d="M40.3321 0.597656H0.332031V30.5977H40.3321V0.597656Z" fill="white"/>
</mask>
<g mask="url(#mask0_213_659)">
<path d="M34.7542 17.8323C33.3557 17.8402 32.1447 18.176 31.1291 18.6761C30.7541 17.9339 30.3791 17.2854 30.3167 16.8011C30.2464 16.2386 30.1605 15.8948 30.2464 15.223C30.3323 14.5511 30.7229 13.5979 30.7229 13.5198C30.715 13.4495 30.6369 13.1057 29.8323 13.0979C29.0277 13.0901 28.3323 13.2542 28.2542 13.4651C28.1761 13.676 28.0198 14.1604 27.9182 14.6604C27.7776 15.3948 26.3088 17.9963 25.4729 19.3635C25.1994 18.8323 24.9651 18.3635 24.9181 17.9885C24.8479 17.426 24.7619 17.0822 24.8479 16.4104C24.9338 15.7385 25.3245 14.7854 25.3245 14.7073C25.3166 14.637 25.2385 14.2932 24.4339 14.2854C23.6291 14.2776 22.9339 14.4417 22.8558 14.6526C22.7777 14.8635 22.6917 15.3635 22.5198 15.8479C22.3557 16.3323 20.4026 20.676 19.8948 21.8088C19.637 22.387 19.4105 22.8479 19.2463 23.1604C19.0823 23.4729 19.2385 23.1839 19.2229 23.2151C19.0823 23.4807 19.0042 23.6292 19.0042 23.6292V23.637C18.8948 23.8323 18.7776 24.0198 18.7228 24.0198C18.6838 24.0198 18.6056 23.4963 18.7385 22.7777C19.0275 21.2698 19.7306 18.9183 19.7229 18.8324C19.7229 18.7933 19.8556 18.3792 19.2697 18.1683C18.6994 17.9574 18.4963 18.3089 18.4494 18.3089C18.4025 18.3089 18.3635 18.4339 18.3635 18.4339C18.3635 18.4339 18.9963 15.7856 17.1525 15.7856C15.9963 15.7856 14.4025 17.0434 13.6135 18.1918C13.1135 18.4652 12.0509 19.0433 10.9259 19.6605C10.4963 19.895 10.051 20.1449 9.62909 20.3715L9.54323 20.2776C7.30883 17.8948 3.17603 16.2073 3.3479 13.0041C3.4104 11.8401 3.81665 8.76975 11.2855 5.05103C17.4027 2.00415 22.3011 2.84009 23.1526 4.69946C24.3635 7.35573 20.5354 12.2932 14.1761 13.0041C11.7542 13.2776 10.4807 12.3401 10.1604 11.9885C9.82457 11.6213 9.77765 11.6057 9.65267 11.676C9.44957 11.7854 9.57455 12.1136 9.65267 12.3089C9.84017 12.801 10.6214 13.676 11.9495 14.1135C13.1135 14.4963 15.9574 14.7073 19.3949 13.3791C23.2464 11.8869 26.2542 7.74633 25.3714 4.2854C24.473 0.761963 18.6292 -0.394286 13.1058 1.56665C9.81665 2.73852 6.25415 4.56665 3.69165 6.96508C0.644778 9.80884 0.160404 12.2932 0.363528 13.3245C1.07454 17.0042 6.14478 19.4026 8.17601 21.176C8.07449 21.2306 7.98071 21.2853 7.89479 21.3323C6.87917 21.8322 3.01197 23.8557 2.04321 25.9962C0.949467 28.4181 2.21509 30.1604 3.05884 30.3948C5.66821 31.1213 8.34011 29.8167 9.78539 27.6682C11.2228 25.5198 11.051 22.7307 10.387 21.4573L10.3634 21.4104L11.1603 20.9417C11.6761 20.637 12.1838 20.3557 12.6291 20.1135C12.3791 20.7932 12.1994 21.5978 12.1057 22.7697C11.9963 24.1448 12.5588 25.926 13.301 26.6291C13.6292 26.9337 14.0198 26.9416 14.262 26.9416C15.1213 26.9416 15.512 26.2305 15.9416 25.3791C16.4729 24.34 16.9417 23.1369 16.9417 23.1369C16.9417 23.1369 16.3557 26.3947 17.9573 26.3947C18.5432 26.3947 19.1291 25.6369 19.3948 25.2462V25.2541C19.3948 25.2541 19.4104 25.2306 19.4417 25.176C19.4744 25.1275 19.5057 25.078 19.5354 25.0276V25.012C19.7698 24.6057 20.2932 23.676 21.0745 22.137C22.0822 20.1526 23.051 17.6682 23.051 17.6682C23.051 17.6682 23.1447 18.2776 23.4338 19.2776C23.6056 19.8714 23.9806 20.5198 24.2697 21.1526C24.0353 21.4807 23.8947 21.6683 23.8947 21.6683L23.9025 21.6761C23.7151 21.9261 23.5041 22.1918 23.2854 22.4574C22.4885 23.4105 21.5354 24.4965 21.4104 24.809C21.2619 25.1761 21.2932 25.4495 21.5823 25.6684C21.7932 25.8246 22.1682 25.8558 22.5667 25.8246C23.2854 25.7777 23.7854 25.5981 24.0354 25.4886C24.4261 25.348 24.8713 25.137 25.301 24.8246C26.0823 24.2465 26.5588 23.4262 26.512 22.3325C26.4886 21.7309 26.2932 21.1371 26.051 20.5746C26.1214 20.4731 26.1917 20.3714 26.262 20.2621C27.4963 18.4574 28.4495 16.473 28.4495 16.473C28.4495 16.473 28.5432 17.0825 28.8323 18.0824C28.9806 18.5903 29.2776 19.145 29.5432 19.6919C28.3869 20.6372 27.6604 21.731 27.4104 22.4497C26.9495 23.7779 27.3088 24.3794 27.9886 24.52C28.2931 24.5825 28.7307 24.4419 29.0588 24.3012C29.465 24.1685 29.9572 23.9418 30.4104 23.606C31.1916 23.0278 31.9416 22.2231 31.9026 21.1372C31.8791 20.6372 31.7463 20.145 31.5667 19.6763C32.551 19.27 33.8244 19.0356 35.4416 19.2309C38.9182 19.6372 39.6057 21.8091 39.473 22.7153C39.3402 23.6217 38.6136 24.1216 38.3713 24.2778C38.1292 24.4263 38.051 24.4811 38.0745 24.5903C38.1057 24.7545 38.2151 24.7466 38.426 24.7154C38.7151 24.6684 40.2542 23.9732 40.3166 22.3014C40.4104 20.1527 38.3713 17.8089 34.7542 17.8323ZM7.94165 26.8713C6.79319 28.1292 5.17603 28.6057 4.48853 28.1994C3.74634 27.7698 4.03533 25.9182 5.44947 24.5823C6.30884 23.7698 7.42601 23.0198 8.16041 22.5588C8.32445 22.4573 8.57447 22.3089 8.87135 22.1292C8.91821 22.098 8.94947 22.0823 8.94947 22.0823C9.00413 22.0511 9.06665 22.012 9.12917 21.9729C9.65261 23.8791 9.15257 25.551 7.94165 26.8713ZM16.3401 21.1604C15.9416 22.137 15.0979 24.6448 14.5901 24.5042C14.1525 24.387 13.887 22.4885 14.5041 20.6135C14.8166 19.6682 15.4807 18.5432 15.8713 18.1056C16.5041 17.4025 17.1915 17.1681 17.3635 17.4572C17.5667 17.8323 16.5901 20.5511 16.3401 21.1604ZM23.2698 24.4729C23.0979 24.5589 22.9416 24.6213 22.8713 24.5745C22.8167 24.5433 22.9416 24.4261 22.9416 24.4261C22.9416 24.4261 23.8088 23.4964 24.1525 23.0667C24.3478 22.8168 24.5822 22.5278 24.8322 22.1996V22.2933C24.8322 23.4182 23.7542 24.1682 23.2698 24.4729ZM28.6134 23.2542C28.4885 23.1604 28.5041 22.8713 28.9259 21.9651C29.0901 21.6057 29.465 21.0042 30.1134 20.4338C30.1916 20.6682 30.2386 20.8947 30.2306 21.1057C30.2229 22.512 29.2229 23.0354 28.6134 23.2542Z" fill="#CF649A"/>
</g>
</svg>
