<svg width="27" height="31" viewBox="0 0 27 31" fill="none" xmlns="http://www.w3.org/2000/svg">
<path d="M22.3374 10.1647V20.9718L13.1543 26.4048L13.0713 26.4804V30.5195L13.1543 30.5977L26.0874 23.1272V8.06824L25.9652 8.03833L22.3191 10.0768L22.3374 10.1647Z" fill="#2F406A"/>
<path d="M3.94187 21.0601L13.1545 26.4047V30.5976L0.132812 23.0976V8.09757L0.266439 8.07739L3.90202 10.1911L3.94187 10.3121V21.0601Z" fill="#2379BD"/>
<path d="M3.94187 10.3122L0.132812 8.09766L13.125 0.597656L26.0875 8.06815L22.3376 10.1646L13.125 4.90867L3.94187 10.3122Z" fill="#03AFEF"/>
<path d="M12.9962 19.8243L12.8965 19.7225V15.6644L12.9962 15.6129L13.0205 15.5128L16.4995 13.4834L16.606 13.5072V17.6886L12.9962 19.8243Z" fill="#2F406A"/>
<path d="M9.32617 17.8188V13.4771L9.42705 13.4722L12.966 15.5317L12.9961 15.6128V19.8242L9.32617 17.8188Z" fill="#2379BD"/>
<path d="M12.9359 11.3413L9.32617 13.4771L12.9961 15.6128L16.6059 13.5071L12.9359 11.3413Z" fill="#03AFEF"/>
<path d="M8.50396 22.4715L8.4043 22.3697V18.3115L8.50396 18.2601L8.52829 18.1601L12.0072 16.1306L12.1137 16.1544V20.3357L8.50396 22.4715Z" fill="#2F406A"/>
<path d="M4.83398 20.4661V16.1244L4.93476 16.1194L8.47373 18.179L8.50384 18.2601V22.4715L4.83398 20.4661Z" fill="#2379BD"/>
<path d="M8.44372 13.9885L4.83398 16.1242L8.50384 18.26L12.1136 16.1543L8.44372 13.9885Z" fill="#03AFEF"/>
<path d="M17.8097 22.5716L17.71 22.4698V18.4116L17.8097 18.3602L17.834 18.2601L21.313 16.2307L21.4195 16.2545V20.4358L17.8097 22.5716Z" fill="#2F406A"/>
<path d="M14.1396 20.5662V16.2244L14.2405 16.2195L17.7795 18.2791L17.8096 18.3602V22.5716L14.1396 20.5662Z" fill="#2379BD"/>
<path d="M17.7494 14.0889L14.1396 16.2246L17.8096 18.3603L21.4193 16.2547L17.7494 14.0889Z" fill="#03AFEF"/>
<path d="M13.3174 25.2188L13.2178 25.117V21.0588L13.3174 21.0074L13.3418 20.9073L16.8208 18.8779L16.9272 18.9018V23.083L13.3174 25.2188Z" fill="#2F406A"/>
<path d="M9.64746 23.2134V18.8717L9.74824 18.8667L13.2873 20.9262L13.3173 21.0075V25.2188L9.64746 23.2134Z" fill="#2379BD"/>
<path d="M13.2572 16.7358L9.64746 18.8716L13.3173 21.0074L16.927 18.9017L13.2572 16.7358Z" fill="#03AFEF"/>
<path d="M12.9962 14.0689L12.8965 13.967V9.90893L12.9962 9.85753L13.0205 9.75736L16.4995 7.72803L16.606 7.75185V11.9331L12.9962 14.0689Z" fill="#2F406A"/>
<path d="M9.32617 12.0633V7.72152L9.42705 7.71655L12.966 9.7761L12.9961 9.85731V14.0687L9.32617 12.0633Z" fill="#2379BD"/>
<path d="M12.9359 5.58594L9.32617 7.72173L12.9961 9.85752L16.6059 7.75184L12.9359 5.58594Z" fill="#03AFEF"/>
<path d="M8.50396 16.7159L8.4043 16.6141V12.556L8.50396 12.5045L8.52829 12.4044L12.0072 10.375L12.1137 10.3988V14.5802L8.50396 16.7159Z" fill="#2F406A"/>
<path d="M4.83398 14.7104V10.3687L4.93476 10.3638L8.47373 12.4233L8.50384 12.5044V16.7158L4.83398 14.7104Z" fill="#2379BD"/>
<path d="M8.44372 8.23291L4.83398 10.3687L8.50384 12.5044L12.1136 10.3987L8.44372 8.23291Z" fill="#03AFEF"/>
<path d="M17.8097 16.8162L17.71 16.7144V12.6563L17.8097 12.6048L17.834 12.5048L21.313 10.4753L21.4195 10.4992V14.6805L17.8097 16.8162Z" fill="#2F406A"/>
<path d="M14.1396 14.8107V10.4691L14.2405 10.4641L17.7795 12.5237L17.8096 12.6048V16.8161L14.1396 14.8107Z" fill="#2379BD"/>
<path d="M17.7494 8.33325L14.1396 10.469L17.8096 12.6047L21.4193 10.4991L17.7494 8.33325Z" fill="#03AFEF"/>
<path d="M13.3174 19.4632L13.2178 19.3614V15.3032L13.3174 15.2518L13.3418 15.1517L16.8208 13.1223L16.9272 13.1461V17.3274L13.3174 19.4632Z" fill="#2F406A"/>
<path d="M9.64746 17.4578V13.1161L9.74824 13.1111L13.2873 15.1707L13.3173 15.2518V19.4632L9.64746 17.4578Z" fill="#2379BD"/>
<path d="M13.2572 10.9805L9.64746 13.1163L13.3173 15.252L16.927 13.1464L13.2572 10.9805Z" fill="#03AFEF"/>
</svg>
