<svg width="980" height="1095" viewBox="0 0 980 1095" fill="none" xmlns="http://www.w3.org/2000/svg">
<path d="M771.059 48.5811H84.0355C37.9876 48.5811 0.316406 86.2571 0.316406 132.3V889.96C0.316406 936.003 37.9876 973.679 84.0355 973.679H536.524C531.388 748.531 608.273 311.591 771.059 48.5811Z" fill="#0F80CC"/>
<path d="M746.1 73.0039H84.0358C51.339 73.0039 24.7344 99.6036 24.7344 132.305V834.682C174.677 777.137 399.723 727.482 555.328 729.737C586.599 566.234 678.5 245.807 746.1 73.0039Z" fill="url(#paint0_linear_600_384)"/>
<path d="M931.306 23.7834C884.252 -18.1738 827.279 -1.32256 771.058 48.5818C762.711 55.9921 754.383 64.2175 746.099 73.0044C649.912 175.044 560.628 364.044 532.891 508.392C543.699 530.306 552.139 558.267 557.694 579.629C559.12 585.106 560.403 590.252 561.433 594.625C563.874 604.984 565.187 611.696 565.187 611.696C565.187 611.696 564.323 608.435 560.784 598.174C560.111 596.207 559.359 594.059 558.47 591.531C558.007 590.294 557.512 589.07 556.986 587.86C550.713 573.273 533.359 542.49 525.72 529.085C519.665 546.846 513.95 564.72 508.581 582.7C530.631 623.046 544.07 692.189 544.07 692.189C544.07 692.189 542.903 687.707 537.362 672.067C532.442 658.237 507.941 615.304 502.137 605.267C492.208 641.923 488.263 666.668 491.822 672.692C498.73 684.364 505.305 704.51 511.085 726.784C524.133 776.967 533.198 838.065 533.198 838.065C533.198 838.065 533.491 842.117 533.989 848.346C532.173 890.488 533.262 934.183 536.528 973.675C540.848 1025.96 548.985 1070.87 559.359 1094.9L566.403 1091.07C551.172 1043.71 544.982 981.652 547.692 910.078C551.792 800.682 576.967 668.747 623.483 531.238C702.077 323.659 811.111 157.109 910.906 77.5686C819.947 159.716 696.844 425.611 659.992 524.072C618.728 634.337 589.488 737.807 571.865 836.942C602.273 744.002 700.583 704.056 700.583 704.056C700.583 704.056 748.798 644.588 805.146 559.629C771.395 567.328 715.97 580.508 697.405 588.309C670.019 599.795 662.643 603.715 662.643 603.715C662.643 603.715 751.341 549.695 827.445 525.239C932.106 360.398 1046.14 126.218 931.306 23.7834Z" fill="#003B57"/>
<defs>
<linearGradient id="paint0_linear_600_384" x1="41620.1" y1="1631.4" x2="41620.1" y2="72005.1" gradientUnits="userSpaceOnUse">
<stop stop-color="#97D9F6"/>
<stop offset="0.92024" stop-color="#0F80CC"/>
<stop offset="1" stop-color="#0F80CC"/>
</linearGradient>
</defs>
</svg>
