<svg width="31" height="31" viewBox="0 0 31 31" fill="none" xmlns="http://www.w3.org/2000/svg">
<g clip-path="url(#clip0_211_591)">
<path d="M2.41056 15.5977C2.41056 20.6913 5.37056 25.0931 9.66303 27.1791L3.52467 10.3607C2.78883 12.0085 2.40918 13.793 2.41056 15.5977ZM23.966 14.9482C23.966 13.358 23.3947 12.2566 22.9048 11.3994C22.2524 10.3394 21.641 9.44177 21.641 8.38177C21.641 7.19883 22.5382 6.09766 23.802 6.09766C23.859 6.09766 23.913 6.10472 23.9687 6.10801C21.6793 4.01048 18.629 2.72989 15.2789 2.72989C10.7833 2.72989 6.82809 5.03648 4.52714 8.53013C4.82903 8.53919 5.1135 8.54542 5.35526 8.54542C6.70114 8.54542 8.78467 8.38224 8.78467 8.38224C9.47844 8.3413 9.5602 9.36013 8.86726 9.44224C8.86726 9.44224 8.17008 9.52424 7.39432 9.56483L12.0807 23.5035L14.8968 15.0577L12.8918 9.56448C12.1989 9.52389 11.5424 9.44189 11.5424 9.44189C10.849 9.40119 10.9303 8.34095 11.6237 8.38189C11.6237 8.38189 13.7489 8.54519 15.0133 8.54519C16.3591 8.54519 18.4428 8.38189 18.4428 8.38189C19.1369 8.34095 19.2186 9.35977 18.5254 9.44189C18.5254 9.44189 17.8268 9.52389 17.0524 9.56448L21.7029 23.3975L22.9864 19.1084C23.5427 17.3285 23.9661 16.0501 23.9661 14.9484L23.966 14.9482ZM15.5047 16.7233L11.6437 27.9425C12.8242 28.2901 14.0483 28.4667 15.2789 28.4667C16.7774 28.4667 18.2144 28.2077 19.5522 27.7373C19.5165 27.681 19.4858 27.6217 19.4606 27.56L15.5047 16.7233ZM26.5703 9.42389C26.6256 9.83377 26.657 10.2738 26.657 10.7471C26.657 12.0529 26.4131 13.5208 25.6786 15.3562L21.7479 26.721C25.5735 24.49 28.1467 20.3453 28.1467 15.598C28.1469 13.3607 27.5755 11.2568 26.5703 9.42389ZM15.2789 0.597656C7.00773 0.597656 0.27832 7.3266 0.27832 15.5977C0.27832 23.8698 7.00773 30.5985 15.2789 30.5985C23.5497 30.5985 30.2801 23.8698 30.2801 15.5977C30.28 7.3266 23.5497 0.597656 15.2789 0.597656ZM15.2789 29.9109C7.38714 29.9109 0.966085 23.49 0.966085 15.5977C0.966085 7.70589 7.38679 1.28542 15.2789 1.28542C23.1704 1.28542 29.5909 7.70589 29.5909 15.5977C29.5909 23.49 23.1704 29.9109 15.2789 29.9109Z" fill="black"/>
</g>
<defs>
<clipPath id="clip0_211_591">
<rect width="30.1205" height="30" fill="white" transform="translate(0.27832 0.597656)"/>
</clipPath>
</defs>
</svg>
